<?xml version="1.0" standalone="no"?>
<!DOCTYPE svg PUBLIC "-//W3C//DTD SVG 20010904//EN"
 "http://www.w3.org/TR/2001/REC-SVG-20010904/DTD/svg10.dtd">
<svg version="1.0" xmlns="http://www.w3.org/2000/svg"
 width="1254.000000pt" height="1254.000000pt" viewBox="0 0 1254.000000 1254.000000"
 preserveAspectRatio="xMidYMid meet">

<g transform="translate(0.000000,1254.000000) scale(0.100000,-0.100000)"
fill="#000000" stroke="none">
<path d="M5890 11204 c-230 -14 -504 -59 -721 -118 -413 -113 -836 -330 -1170
-599 -606 -489 -1024 -1187 -1173 -1957 -48 -248 -60 -371 -60 -625 0 -320 28
-543 104 -840 169 -657 527 -1255 1023 -1707 633 -575 1420 -895 2277 -925
723 -25 1475 209 2093 651 108 77 237 178 237 186 0 3 -84 111 -186 240 -103
129 -192 243 -199 254 -13 18 -14 18 -38 0 -13 -11 -60 -46 -103 -80 -716
-554 -1590 -735 -2453 -509 -356 94 -725 278 -1030 513 -111 85 -398 372 -484
483 -303 393 -510 889 -583 1394 -25 166 -25 507 -1 665 66 432 209 804 442
1155 274 412 672 743 1125 938 365 157 759 226 1175 205 364 -18 730 -116
1070 -287 119 -60 319 -180 410 -245 16 -11 10 -16 297 231 182 157 225 199
216 210 -34 42 -261 205 -407 293 -417 251 -864 402 -1346 455 -139 15 -408
25 -515 19z"/>
<path d="M5700 10285 c-99 -17 -172 -34 -178 -40 -6 -5 24 -9 48 -5 9 1 0 -14
-19 -34 -19 -20 -37 -36 -40 -36 -3 0 0 5 7 12 18 18 14 31 -8 25 -11 -3 -18
-2 -15 3 3 4 -1 13 -9 19 -9 8 -33 6 -92 -10 -43 -11 -85 -25 -94 -30 -11 -8
-10 -9 7 -4 18 5 22 3 17 -9 -3 -9 -15 -16 -26 -16 -10 0 -17 -4 -14 -9 3 -4
-7 -6 -21 -3 l-27 5 23 9 c13 5 22 11 19 13 -12 13 -249 -82 -263 -105 -8 -13
1 -13 28 1 25 13 15 2 -26 -28 -17 -13 -35 -19 -49 -15 -16 4 -19 2 -13 -8 5
-9 4 -11 -4 -6 -14 9 -5 26 14 26 7 0 15 7 19 15 7 20 -79 -24 -210 -106 -279
-175 -481 -354 -465 -414 1 -5 -1 -7 -5 -3 -4 4 -14 2 -23 -4 -9 -7 -5 1 9 17
24 29 24 29 1 10 -28 -24 -111 -122 -94 -112 13 8 26 -8 30 -36 2 -12 -1 -16
-9 -11 -8 5 -9 2 -5 -9 8 -22 -2 -22 -20 1 -14 16 -14 16 -9 0 3 -10 2 -18 -3
-18 -16 0 -20 13 -10 31 16 31 3 22 -27 -18 -15 -21 -21 -32 -12 -25 15 12 16
10 13 -15 -2 -15 -4 -32 -4 -36 -1 -5 -5 -5 -11 -2 -16 10 -33 -5 -21 -19 8
-9 7 -13 -3 -13 -14 0 -15 9 -1 39 4 10 12 15 18 11 6 -4 7 -1 2 7 -6 10 -15
6 -34 -19 -41 -52 -136 -207 -120 -196 8 6 26 12 42 14 25 2 27 0 27 -37 0
-36 -2 -39 -25 -39 -15 0 -33 9 -43 22 l-17 22 -28 -49 c-15 -27 -25 -54 -21
-60 4 -6 3 -8 -3 -5 -6 4 -16 -8 -24 -26 -7 -17 -29 -68 -49 -112 -21 -44 -46
-103 -55 -131 l-18 -50 43 -64 c40 -60 39 -67 -4 -31 -11 9 -16 10 -12 4 12
-22 -12 -14 -28 8 -14 21 -15 20 -25 -17 -27 -103 -33 -135 -27 -141 3 -4 6 4
6 16 0 12 4 19 10 16 6 -4 7 1 3 11 -6 15 -4 15 13 -2 12 -12 18 -28 16 -42
-3 -17 -7 -20 -13 -11 -6 11 -9 10 -15 -4 -5 -13 -10 -15 -19 -7 -10 8 -16 -9
-29 -78 -9 -49 -18 -120 -21 -158 -3 -53 -2 -60 4 -29 5 24 9 31 10 17 0 -12
7 -33 15 -45 20 -32 30 -127 14 -127 -8 0 -20 -9 -28 -21 -14 -18 -15 -14 -21
58 -4 59 -6 39 -7 -83 -2 -140 0 -163 14 -168 22 -9 26 -8 18 6 -4 6 -3 8 3 5
12 -7 86 17 77 26 -3 3 5 3 20 -1 34 -9 35 -16 9 -46 l-23 -26 26 -6 c14 -4
23 -9 20 -11 -3 -3 -33 4 -68 15 -107 35 -103 36 -100 -33 5 -90 5 -91 85
-116 67 -21 70 -23 42 -29 -39 -9 -75 -39 -76 -65 -1 -17 -2 -16 -9 5 -8 24
-8 24 -8 -5 0 -16 4 -41 8 -55 8 -25 8 -25 10 5 2 19 4 24 7 12 3 -11 11 -16
19 -13 8 3 14 1 14 -5 0 -6 4 -8 8 -5 5 3 18 -3 30 -14 12 -11 28 -17 36 -14
11 4 16 0 16 -13 0 -15 -8 -19 -35 -20 -30 -1 -34 1 -24 13 10 12 9 18 -5 32
-17 16 -18 16 -11 -8 l8 -25 -22 25 c-13 14 -20 19 -16 12 3 -7 3 -22 -1 -35
l-8 -22 -7 25 c-6 17 -7 12 -3 -16 3 -23 14 -68 25 -100 17 -53 19 -44 4 19
-4 12 1 31 10 42 15 19 15 19 9 -10 -4 -21 -3 -26 4 -16 12 17 20 5 28 -46 4
-26 2 -43 -5 -47 -6 -4 -11 -14 -11 -22 0 -8 4 -13 9 -10 5 4 7 -4 3 -16 -5
-20 -7 -19 -18 12 -7 19 -13 31 -13 25 -1 -15 27 -103 39 -123 10 -15 10 -15
8 3 -2 15 2 19 16 17 13 -2 16 1 10 10 -6 11 -5 11 8 0 18 -14 20 -104 3 -119
-4 -4 -6 -3 -3 2 3 6 -1 16 -9 24 -13 12 -14 11 -8 -10 4 -13 18 -46 32 -74
13 -27 20 -41 17 -30 -17 54 -17 53 23 56 21 2 54 -1 73 -7 l35 -12 -30 -13
c-16 -8 -34 -19 -38 -26 -4 -7 -16 -13 -25 -14 -9 0 -12 -3 -5 -5 7 -3 9 -12
6 -20 -4 -12 -8 -12 -19 3 -21 28 -16 3 10 -46 17 -33 24 -40 29 -27 8 21 47
21 47 0 0 -8 4 -13 9 -10 5 3 11 -3 14 -14 3 -12 1 -18 -5 -14 -6 4 -8 -2 -3
-16 5 -17 4 -21 -5 -15 -9 5 -11 4 -6 -3 5 -9 15 -7 34 5 24 15 23 13 -7 -20
l-35 -37 24 -42 c28 -51 110 -168 117 -168 3 0 -2 11 -10 24 -15 22 -14 23 18
34 31 9 35 8 41 -12 3 -11 14 -30 23 -40 9 -11 10 -16 4 -12 -7 4 -13 3 -13
-1 0 -5 -7 -18 -16 -29 -8 -10 -12 -13 -8 -5 5 9 3 12 -5 7 -8 -5 -1 -21 21
-52 41 -58 54 -68 64 -53 5 8 3 9 -6 4 -9 -6 -11 -4 -5 4 4 8 17 10 32 6 14
-3 22 -2 19 4 -3 5 1 11 9 15 19 7 28 -10 21 -40 -5 -20 -2 -26 19 -34 14 -5
25 -16 25 -24 0 -13 -29 -44 -37 -38 -1 1 -3 0 -4 -3 0 -4 26 -35 57 -70 35
-39 62 -61 71 -58 8 3 12 11 10 17 -2 6 5 19 15 29 10 9 18 14 18 10 0 -5 4
-2 9 6 6 9 20 -22 46 -98 l36 -111 84 -64 c107 -84 211 -149 225 -141 6 4 9 1
8 -5 -2 -6 26 -27 62 -46 36 -20 54 -27 40 -15 -14 11 -32 21 -40 22 -10 0
-11 2 -3 6 17 6 85 -36 77 -48 -3 -5 46 -34 110 -64 113 -53 117 -54 167 -45
29 6 55 8 57 5 3 -3 -3 -5 -14 -5 -17 -1 -17 -2 5 -20 28 -24 23 -25 -29 -4
-23 9 -43 14 -46 11 -3 -2 47 -23 111 -46 116 -41 166 -53 110 -26 l-30 15 31
-6 c20 -3 35 0 42 9 10 11 2 26 -40 75 -58 65 -74 77 -84 60 -4 -6 -3 -8 4 -4
6 3 14 1 18 -6 4 -7 3 -10 -1 -5 -5 4 -18 1 -31 -7 -12 -8 -24 -12 -28 -9 -11
11 -7 93 5 93 6 0 1 14 -11 30 -43 60 -10 28 59 -57 38 -49 88 -108 110 -132
22 -24 38 -47 36 -52 -3 -4 0 -11 6 -15 8 -5 9 -3 4 7 -5 8 1 5 14 -5 16 -15
18 -22 9 -28 -10 -7 -9 -8 2 -6 8 1 29 -5 45 -14 36 -18 188 -47 300 -56 44
-4 199 -7 345 -7 228 1 282 4 385 23 66 12 140 28 165 36 l45 15 -40 -4 c-22
-2 -32 -2 -22 1 9 3 15 9 12 14 -5 8 42 25 59 21 5 -1 6 5 3 13 -4 9 0 19 7
23 19 11 25 35 14 56 -14 28 0 19 17 -10 l16 -28 -6 29 c-12 57 -184 426 -185
396 0 -8 -15 1 -40 25 -21 21 -37 42 -34 46 2 4 -1 11 -7 15 -8 4 -9 3 -5 -4
14 -23 -11 -12 -38 17 l-28 29 26 -2 c14 -2 23 0 21 4 -3 5 2 11 11 14 8 3 12
10 9 16 -3 5 -2 10 4 10 5 0 13 -9 16 -21 4 -11 9 -19 11 -16 4 4 -78 193 -89
203 -3 3 -4 -5 -1 -18 2 -12 1 -17 -2 -10 -5 10 -9 10 -20 1 -8 -6 -14 -17
-14 -23 0 -6 4 -4 10 4 5 8 12 11 16 8 3 -4 0 -14 -9 -22 -13 -14 -16 -14 -21
0 -3 8 -10 13 -15 9 -22 -13 -30 45 -16 116 5 27 25 50 25 29 0 -7 2 -11 5 -8
4 3 -8 37 -26 76 -21 49 -35 69 -45 65 -9 -3 -14 1 -14 12 0 14 -3 15 -15 5
-11 -9 -18 -9 -32 2 -21 15 -27 62 -7 54 8 -3 11 0 7 9 -3 8 -9 12 -14 9 -5
-3 -9 0 -9 5 0 6 4 11 9 11 22 0 17 57 -11 124 -32 75 -45 96 -35 58 3 -12 2
-20 -3 -17 -9 6 -22 -23 -15 -34 2 -4 -2 -8 -10 -8 -12 0 -12 5 1 28 20 39 18
42 -12 12 -17 -17 -29 -22 -35 -16 -14 14 -14 72 -1 85 7 7 12 25 12 41 0 19
4 26 12 21 13 -8 13 -8 -28 84 -18 43 -30 59 -35 50 -7 -10 -9 -10 -10 2 0 11
-2 11 -7 -3 -7 -16 -9 -16 -25 3 -9 11 -12 20 -7 20 16 0 12 14 -11 39 -11 12
-18 29 -15 37 3 8 2 13 -3 10 -5 -3 -12 1 -15 10 -8 21 -7 32 2 17 5 -8 11 -8
24 1 16 11 15 17 -11 77 -16 35 -42 96 -58 134 l-29 70 -265 5 -264 6 220 2
c165 3 214 6 195 14 -18 8 -21 12 -10 16 8 2 27 13 42 24 25 18 27 18 37 1 26
-45 6 10 -29 82 -22 44 -38 72 -35 63 2 -10 0 -18 -6 -18 -6 0 -8 -8 -5 -17 5
-16 5 -16 -6 -2 -7 9 -19 14 -26 11 -11 -3 -12 0 -2 18 6 12 9 28 6 36 -3 8 1
14 9 14 21 0 20 3 -31 105 -24 50 -42 83 -40 74 2 -9 -1 -22 -7 -28 -9 -9 -7
-11 8 -5 15 5 17 4 9 -5 -15 -16 -55 6 -47 26 3 7 9 10 14 7 5 -3 6 2 3 10 -3
9 -10 16 -16 16 -5 0 -7 -4 -3 -9 10 -17 -12 -21 -25 -6 -9 11 -9 15 -1 15 7
0 9 5 6 11 -4 6 -8 28 -9 49 -1 37 0 38 17 22 18 -16 1 29 -77 203 -15 33 -36
84 -47 114 -10 30 -30 71 -43 90 -13 20 -39 72 -57 116 -18 44 -35 72 -37 63
-2 -9 -9 -15 -16 -12 -8 3 -16 -2 -19 -10 -8 -20 -47 -8 -47 14 0 21 48 63 61
54 5 -3 6 2 2 11 -4 12 -8 13 -13 5 -5 -8 -9 -4 -13 9 -3 12 -1 19 4 15 13 -8
11 0 -16 62 -14 31 -23 60 -20 64 6 10 24 13 300 60 192 32 329 52 380 54 7 1
10 193 11 556 0 305 -2 517 -6 470 -5 -74 -7 -64 -9 80 -2 91 -6 156 -9 145
-9 -25 -42 -32 -42 -9 0 10 -3 15 -6 11 -10 -10 -34 20 -34 41 0 18 18 26 76
34 13 1 28 74 19 89 -4 5 -65 9 -136 9 -90 0 -128 -3 -124 -11 4 -6 32 -10 64
-9 77 2 77 2 78 -20 2 -17 -4 -20 -37 -20 -46 0 -72 9 -64 21 3 5 -5 9 -17 9
-12 0 -28 8 -35 18 -11 15 -16 15 -34 4 -12 -8 -19 -9 -15 -3 8 15 -59 13
-155 -4z m127 -23 c-15 -16 -15 -19 4 -30 11 -7 17 -17 14 -22 -10 -16 -28
-11 -21 6 3 9 3 14 -1 12 -5 -2 -24 -11 -43 -20 -37 -17 -127 -106 -122 -121
1 -5 -2 -6 -7 -3 -13 8 -63 -53 -55 -66 4 -7 2 -8 -4 -4 -16 10 -15 -7 1 -23
10 -11 8 -11 -12 -1 -21 11 -23 10 -18 -4 3 -8 1 -18 -5 -22 -7 -4 -8 -3 -4 4
15 24 -6 11 -32 -20 -60 -70 -99 -132 -94 -150 2 -10 -1 -18 -7 -18 -5 0 -8 8
-5 18 5 13 4 14 -4 3 -6 -8 -8 -21 -5 -30 4 -14 3 -14 -6 -1 -9 13 -11 13 -12
0 -1 -8 -1 -19 0 -23 1 -5 -3 -6 -8 -3 -14 9 -113 -155 -107 -177 2 -9 0 -15
-4 -12 -9 6 -47 -42 -70 -87 -7 -16 -15 -26 -18 -23 -13 12 190 328 306 475
71 90 332 360 348 360 4 0 0 -8 -9 -18z m113 -6 c0 -2 -7 -7 -16 -10 -8 -3
-12 -2 -9 4 6 10 25 14 25 6z m-575 -85 c3 -5 2 -12 -3 -15 -5 -3 -9 1 -9 9 0
17 3 19 12 6z m-185 -39 c0 -8 -43 -32 -58 -32 -6 0 49 40 56 40 1 0 2 -4 2
-8z m290 -15 c0 -2 -12 -14 -27 -28 l-28 -24 24 28 c23 25 31 32 31 24z m-140
-167 c-17 -22 -34 -40 -37 -40 -3 0 0 7 7 15 9 10 9 15 1 15 -6 0 -11 10 -10
23 l0 22 9 -22 c5 -13 12 -23 15 -23 4 0 3 10 0 23 -4 14 -3 18 3 9 7 -10 11
-10 22 3 28 34 20 12 -10 -25z m248 0 c-7 -11 -17 -20 -22 -20 -5 0 -1 9 9 20
10 11 20 20 22 20 2 0 -2 -9 -9 -20z m-781 -12 c-14 -7 -15 -13 -7 -23 10 -12
7 -12 -14 -2 -22 11 -23 13 -6 19 10 4 21 12 25 18 4 6 10 8 13 5 4 -4 -1 -11
-11 -17z m-232 -167 c3 -5 0 -13 -6 -17 -8 -5 -9 -3 -4 6 5 9 4 11 -4 6 -16
-10 -3 -29 16 -22 8 3 11 1 8 -4 -3 -6 0 -10 7 -11 7 0 4 -4 -7 -8 -12 -5 -23
-4 -28 3 -4 6 -5 -2 -2 -19 3 -16 3 -25 -1 -18 -4 9 -11 7 -27 -7 -27 -26 -32
-19 -17 27 19 57 50 88 65 64z m-100 -257 c-11 -55 -11 -66 1 -71 21 -8 17
-26 -5 -20 -14 3 -18 1 -14 -9 3 -8 9 -11 14 -8 5 3 9 -2 9 -11 0 -11 -6 -15
-19 -10 -14 4 -20 -1 -25 -21 -4 -14 -9 -24 -12 -22 -11 11 46 238 60 238 1 0
-3 -30 -9 -66z m590 6 c-9 -16 -18 -30 -21 -30 -2 0 2 14 11 30 9 17 18 30 21
30 2 0 -2 -13 -11 -30z m-758 -22 c-3 -8 -6 -5 -6 6 -1 11 2 17 5 13 3 -3 4
-12 1 -19z m-62 -56 c-8 -8 -25 10 -19 20 4 6 9 5 15 -3 4 -7 6 -15 4 -17z
m911 -84 c-41 -90 -75 -156 -76 -145 0 12 98 217 104 217 3 0 -9 -33 -28 -72z
m1031 0 c-2 -13 -4 -3 -4 22 0 25 2 35 4 23 2 -13 2 -33 0 -45z m-1211 -15
c-8 -15 -15 -25 -16 -21 0 12 23 58 27 54 3 -2 -2 -17 -11 -33z m-717 -108
l-12 -76 -23 42 c-23 39 -34 80 -14 49 7 -12 10 -12 10 -1 0 7 6 11 15 8 10
-5 16 4 21 29 13 68 16 25 3 -51z m672 8 c-12 -20 -14 -14 -5 12 4 9 9 14 11
11 3 -2 0 -13 -6 -23z m-524 -35 c-3 -8 -6 -5 -6 6 -1 11 2 17 5 13 3 -3 4
-12 1 -19z m-190 -15 c7 -15 10 -29 7 -32 -4 -3 -9 -1 -11 6 -2 7 -12 9 -21 6
-12 -3 -14 -2 -4 4 7 5 10 17 6 26 -10 28 10 19 23 -10z m694 0 c-12 -20 -14
-14 -5 12 4 9 9 14 11 11 3 -2 0 -13 -6 -23z m133 -94 c-35 -91 -54 -130 -39
-79 16 53 67 181 71 177 2 -2 -12 -46 -32 -98z m-635 41 c1 16 4 21 9 13 8
-13 7 -31 -4 -107 -4 -25 -9 -34 -14 -25 -6 8 -14 -4 -24 -37 l-16 -49 5 45
c2 25 10 83 17 130 11 79 13 82 19 45 4 -26 7 -31 8 -15z m-379 11 c0 -5 -7
-11 -15 -15 -15 -5 -20 5 -8 17 9 10 23 9 23 -2z m207 -33 c-3 -8 -6 -5 -6 6
-1 11 2 17 5 13 3 -3 4 -12 1 -19z m634 -29 c-5 -13 -10 -19 -10 -12 -1 15 10
45 15 40 3 -2 0 -15 -5 -28z m1316 -51 c-2 -13 -4 -3 -4 22 0 25 2 35 4 23 2
-13 2 -33 0 -45z m-2207 20 c0 -6 -3 -8 -7 -5 -3 4 -12 -1 -20 -11 -12 -15
-12 -13 -2 10 11 26 29 29 29 6z m847 -20 c-3 -7 -5 -2 -5 12 0 14 2 19 5 13
2 -7 2 -19 0 -25z m-600 -25 c-3 -10 -5 -2 -5 17 0 19 2 27 5 18 2 -10 2 -26
0 -35z m608 -28 c-15 -41 -23 -55 -20 -35 4 19 10 44 15 55 4 11 11 29 14 39
4 10 8 17 11 14 2 -2 -7 -35 -20 -73z m-626 -147 c-13 -142 -14 -142 -23 -84
-6 43 -5 60 3 66 7 4 11 18 9 31 -3 31 12 142 19 135 3 -2 -1 -69 -8 -148z
m782 110 c-31 -92 -71 -247 -96 -363 -27 -132 -35 -157 -35 -114 0 57 126 527
137 515 3 -3 0 -19 -6 -38z m-1065 -34 c-3 -8 4 -19 15 -25 11 -6 18 -13 15
-16 -3 -3 3 -13 14 -23 18 -16 18 -17 -11 -34 -16 -9 -29 -22 -29 -28 0 -6 -7
-20 -16 -30 -16 -16 -15 -20 7 -52 13 -19 28 -32 33 -29 5 3 6 1 2 -5 -4 -7
-4 -12 1 -13 4 0 16 -2 26 -4 9 -2 17 1 17 6 0 6 7 6 19 0 14 -8 18 -20 16
-50 -1 -23 2 -38 6 -35 5 3 14 -7 19 -21 6 -16 14 -23 22 -19 6 4 8 3 4 -4 -3
-6 2 -15 11 -21 10 -6 13 -11 6 -11 -6 0 -2 -11 10 -24 16 -18 27 -22 42 -16
18 6 21 18 26 101 l5 94 2 -128 2 -129 -39 31 c-75 60 -187 189 -249 290 -52
85 -61 104 -52 121 6 11 13 20 16 20 3 0 3 -4 -1 -9 -3 -5 -1 -12 3 -15 14 -9
35 45 22 58 -5 5 -10 14 -10 20 0 5 7 1 16 -10 13 -16 15 -16 10 -1 -3 9 -1
17 5 17 6 0 7 5 3 12 -5 7 -3 8 5 4 7 -5 10 -14 7 -22z m253 -38 c-9 -8 -10
-7 -5 7 3 10 7 24 7 30 1 7 3 4 6 -7 3 -10 -1 -23 -8 -30z m628 12 c-3 -8 -6
-5 -6 6 -1 11 2 17 5 13 3 -3 4 -12 1 -19z m896 -45 c-7 -2 -19 -2 -25 0 -7 3
-2 5 12 5 14 0 19 -2 13 -5z m-1346 -35 c-3 -7 -5 -2 -5 12 0 14 2 19 5 13 2
-7 2 -19 0 -25z m1410 26 c-3 -3 -12 -4 -19 -1 -8 3 -5 6 6 6 11 1 17 -2 13
-5z m-62 -13 c-33 -13 -94 -20 -99 -12 -3 4 8 8 25 9 17 0 34 3 37 6 3 3 17 6
31 5 23 0 24 -1 6 -8z m-228 -61 c1 -11 -2 -22 -6 -24 -6 -4 -7 26 -2 42 3 8
7 -1 8 -18z m-710 -12 c-3 -8 -6 -5 -6 6 -1 11 2 17 5 13 3 -3 4 -12 1 -19z
m-26 -114 c-11 -43 -17 -59 -13 -34 3 25 6 59 7 77 0 17 3 29 8 26 4 -2 7 4 8
14 0 10 3 13 5 7 2 -5 -5 -46 -15 -90z m-394 34 c-3 -8 -6 -5 -6 6 -1 11 2 17
5 13 3 -3 4 -12 1 -19z m-3 -122 c-7 -96 1 -180 15 -157 6 9 11 8 21 -4 10
-12 10 -15 0 -15 -8 0 -10 -3 -7 -6 3 -4 2 -15 -3 -25 -8 -14 -5 -22 12 -35
20 -14 20 -15 3 -9 -11 4 -28 10 -37 12 -16 5 -18 20 -18 123 0 110 8 210 17
210 2 0 0 -42 -3 -94z m373 -38 c-3 -7 -5 -2 -5 12 0 14 2 19 5 13 2 -7 2 -19
0 -25z m-10 -55 c-3 -10 -5 -4 -5 12 0 17 2 24 5 18 2 -7 2 -21 0 -30z m928
-33 c9 -16 13 -30 9 -30 -4 0 -1 -7 6 -15 7 -8 10 -15 7 -15 -3 0 -14 -3 -24
-6 -15 -5 -16 -4 -3 5 13 10 13 13 -1 24 -9 7 -16 25 -16 40 0 34 3 34 22 -3z
m-1684 3 c13 -16 12 -17 -3 -4 -10 7 -18 15 -18 17 0 8 8 3 21 -13z m906 -15
c-3 -8 -6 -5 -6 6 -1 11 2 17 5 13 3 -3 4 -12 1 -19z m-162 -53 c-4 -31 -9
-54 -12 -51 -3 2 -1 30 2 61 4 31 9 54 12 51 3 -2 1 -30 -2 -61z m-741 37 c3
-5 -1 -9 -9 -9 -8 0 -12 4 -9 9 3 4 7 8 9 8 2 0 6 -4 9 -8z m1576 -47 c-9 -11
-5 -13 24 -9 20 2 36 2 36 0 0 -15 -395 -124 -407 -113 -3 4 60 22 111 33 133
26 218 67 200 95 -4 8 1 9 16 4 17 -5 21 -4 15 5 -5 9 -4 11 4 6 9 -6 9 -11 1
-21z m-1507 -3 c-2 -6 3 -9 10 -7 6 2 29 -10 49 -28 26 -24 32 -33 20 -34 -9
0 -32 -3 -49 -6 -18 -2 -30 -1 -28 4 3 4 -1 13 -8 21 -8 7 -13 22 -11 33 2 11
-2 23 -9 28 -8 5 -5 7 8 4 11 -2 19 -8 18 -15z m644 -4 c-3 -8 -6 -5 -6 6 -1
11 2 17 5 13 3 -3 4 -12 1 -19z m191 -37 c2 31 11 42 26 30 6 -4 20 -11 31
-15 16 -6 18 -5 8 5 -7 7 -13 18 -13 24 1 11 30 -25 30 -37 0 -4 -9 -8 -20 -8
-11 0 -19 -3 -18 -7 2 -12 -14 -46 -29 -61 -7 -7 -13 -19 -13 -27 0 -8 -7 -11
-18 -8 -18 4 -18 27 -1 153 1 8 5 -5 9 -30 4 -27 8 -34 8 -19z m-1153 18 c-5
-14 -3 -19 3 -15 6 4 8 -2 5 -14 -3 -11 -9 -20 -14 -20 -10 0 -12 31 -3 54 9
24 16 19 9 -5z m1530 -29 c-3 -5 5 -12 17 -16 22 -7 22 -7 3 -14 -24 -8 -47
-2 -39 11 3 5 -3 10 -13 10 -17 1 -17 2 0 6 9 2 15 9 12 14 -3 5 1 6 9 3 9 -3
14 -10 11 -14z m-671 -12 c-1 -11 4 -15 15 -10 14 5 14 4 2 -11 -12 -15 -11
-17 4 -17 10 0 16 -3 12 -6 -8 -8 -103 15 -152 37 -27 13 -31 17 -13 13 15 -3
35 -1 45 5 28 17 88 10 87 -11z m560 -59 c52 -2 -50 -18 -109 -17 -34 1 -40 2
-17 5 17 2 32 9 32 15 0 6 12 8 31 4 17 -3 46 -7 63 -7z m606 2 c0 -5 -11 -12
-25 -15 -15 -4 -23 -11 -19 -17 4 -8 1 -8 -12 -1 -11 5 -26 8 -34 6 -8 -2 3 5
25 15 45 22 65 25 65 12z m-1538 -266 c3 -149 1 -225 -4 -200 -5 22 -8 111 -8
198 l1 157 -26 0 c-25 0 -26 2 -20 32 7 29 48 76 52 60 1 -4 3 -115 5 -247z
m1354 199 c-20 -11 -25 -18 -16 -24 9 -5 9 -9 1 -14 -6 -4 -17 -4 -23 1 -7 4
-21 6 -30 5 -37 -6 -16 15 30 30 61 21 74 21 38 2z m-1077 -50 c2 -2 -15 -6
-38 -10 -29 -5 -38 -10 -29 -15 10 -7 9 -9 -3 -9 -9 0 -19 -9 -22 -21 -3 -12
-10 -18 -16 -14 -7 4 -11 -11 -12 -42 0 -26 -4 -57 -9 -68 -5 -13 -9 27 -9
107 l-1 127 68 -25 c37 -14 69 -27 71 -30z m931 6 c-8 -5 -22 -9 -30 -9 -10 0
-8 3 5 9 27 12 43 12 25 0z m-122 -32 c-21 -6 -38 -13 -38 -18 0 -4 -35 -7
-77 -8 -86 0 -81 3 34 22 93 16 133 18 81 4z m-625 -8 c16 0 17 -16 15 -222
l-3 -223 -2 218 -3 217 -45 0 c-24 0 -47 5 -51 12 -5 8 4 9 32 5 21 -4 47 -7
57 -7z m327 -32 c-43 -18 -86 -20 -100 -3 -11 13 -4 15 56 14 58 0 65 -2 44
-11z m-42 -35 c-10 -2 -26 -2 -35 0 -10 3 -2 5 17 5 19 0 27 -2 18 -5z m-110
-197 c4 -92 11 -166 16 -165 14 1 26 -24 26 -56 0 -20 -3 -26 -9 -17 -7 11
-10 10 -15 -3 -11 -29 -7 -65 8 -65 8 0 16 7 20 15 7 18 58 20 89 3 l22 -12
-25 -7 c-14 -5 10 -6 55 -4 51 3 73 2 60 -4 -26 -11 30 -18 295 -35 131 -8
176 -14 125 -15 -99 -1 -651 43 -662 53 -5 4 -23 330 -23 410 0 137 11 75 18
-98z m-463 -163 c-9 -20 -11 -15 -16 35 -4 31 -7 77 -7 102 0 39 2 35 17 -35
12 -58 14 -86 6 -102z m-355 90 c43 -8 41 -24 -3 -27 -14 0 -23 -5 -20 -10 3
-4 0 -12 -6 -16 -8 -4 12 -13 46 -22 41 -10 64 -12 75 -4 11 7 23 6 40 -2 22
-11 21 -11 -7 -6 -26 4 -27 4 -12 -6 10 -7 27 -10 38 -7 10 3 17 1 13 -4 -3
-5 1 -9 10 -9 8 0 17 6 19 13 3 6 6 3 6 -9 l1 -21 -92 22 c-51 12 -131 33
-178 45 -77 21 -82 24 -57 33 24 8 26 11 15 25 -11 13 -10 15 4 9 10 -3 20 -1
24 4 3 6 18 8 33 4 14 -4 37 -9 51 -12z m640 -14 c0 -11 -4 -17 -10 -14 -5 3
-10 13 -10 21 0 8 5 14 10 14 6 0 10 -9 10 -21z m-263 -21 c-3 -8 -6 -5 -6 6
-1 11 2 17 5 13 3 -3 4 -12 1 -19z m-297 -34 c0 -14 -3 -14 -15 -4 -8 7 -15
14 -15 16 0 2 7 4 15 4 8 0 15 -7 15 -16z m418 -69 c22 -21 24 -27 13 -34 -11
-7 -9 -10 10 -14 20 -4 19 -4 -6 -5 -37 0 -139 25 -107 27 13 0 20 5 17 11
-11 18 3 40 25 40 12 0 33 -11 48 -25z m172 -43 c0 -38 -1 -38 -32 -33 -32 5
-32 6 -5 9 22 3 27 8 27 33 0 16 2 29 5 29 3 0 5 -17 5 -38z m-293 22 c-3 -3
-12 -4 -19 -1 -8 3 -5 6 6 6 11 1 17 -2 13 -5z m-477 -49 c23 -9 28 -14 15
-14 -11 0 -33 6 -50 14 -39 17 -11 18 35 0z m693 8 c-7 -2 -21 -2 -30 0 -10 3
-4 5 12 5 17 0 24 -2 18 -5z m-703 -43 c0 -5 -5 -10 -11 -10 -5 0 -7 5 -4 10
3 6 8 10 11 10 2 0 4 -4 4 -10z m165 -4 l40 -13 -35 -6 c-53 -9 -72 -6 -59 9
7 9 5 14 -8 17 -16 4 -15 5 2 5 11 0 38 -5 60 -12z m72 -22 c-3 -3 -12 -4 -19
-1 -8 3 -5 6 6 6 11 1 17 -2 13 -5z m98 -90 c4 -41 4 -78 1 -81 -3 -4 -6 3 -6
15 0 11 -5 24 -11 28 -7 4 -10 -3 -9 -17 3 -38 0 -45 -11 -29 -8 11 -9 8 -4
-15 5 -23 4 -27 -5 -19 -7 7 -12 23 -11 35 0 13 1 44 1 69 1 28 4 40 9 31 6
-9 11 -5 19 17 9 26 8 32 -6 35 -13 4 -11 5 4 6 20 1 22 -6 29 -75z m194 30
c2 -2 -5 -4 -17 -4 -27 0 -29 -27 -5 -45 16 -12 16 -17 4 -50 -8 -24 -11 -53
-6 -83 4 -26 4 -44 1 -41 -3 3 -10 41 -16 85 -5 43 -12 96 -15 117 -5 37 -5
37 22 31 16 -4 30 -8 32 -10z m48 -10 c-3 -3 -12 -4 -19 -1 -8 3 -5 6 6 6 11
1 17 -2 13 -5z m163 -25 c21 -6 18 -7 -17 -8 -26 -1 -43 -6 -43 -13 0 -6 -10
-2 -22 9 -13 11 -30 23 -38 26 -21 8 89 -4 120 -14z m88 -194 c0 -12 -3 -9 -8
10 -5 21 -8 24 -10 10 l-1 -20 -9 20 c-12 28 -12 37 0 30 6 -3 10 4 10 17 0
19 -2 20 -11 8 -9 -12 -10 -12 -5 3 3 10 7 35 7 55 1 27 5 16 15 -38 7 -41 12
-84 12 -95z m159 158 c-15 -4 -17 -13 -12 -71 5 -68 -5 -45 -18 41 -5 35 -4
37 21 36 17 -1 21 -3 9 -6z m148 -13 l50 -7 -47 -2 c-29 0 -50 -6 -55 -15 -7
-12 -10 -12 -21 0 -10 11 -10 14 0 15 7 1 0 5 -17 9 l-30 8 35 0 c19 0 58 -3
85 -8z m440 -31 c116 -6 314 -9 442 -7 127 2 229 0 226 -4 -2 -5 -12 -8 -22
-8 -9 0 -23 -6 -30 -12 -11 -10 -13 -10 -7 0 6 9 -53 12 -278 12 -156 0 -291
3 -299 6 -9 3 -16 -3 -20 -15 -5 -21 -37 -30 -37 -11 0 6 7 10 15 10 8 0 15 4
15 9 0 5 -57 12 -127 16 -71 4 -157 11 -193 15 -62 9 -62 9 20 5 47 -3 180
-10 295 -16z m-1228 -66 c-3 -10 -5 -2 -5 17 0 19 2 27 5 18 2 -10 2 -26 0
-35z m1803 27 c0 -5 -9 -10 -21 -10 -11 0 -17 5 -14 10 3 6 13 10 21 10 8 0
14 -4 14 -10z m-1776 -168 c5 -36 4 -42 -6 -30 -7 7 -14 41 -15 78 -1 53 0 58
7 30 4 -19 11 -55 14 -78z m613 76 c-3 -8 -6 -5 -6 6 -1 11 2 17 5 13 3 -3 4
-12 1 -19z m-150 -30 c-3 -8 -6 -5 -6 6 -1 11 2 17 5 13 3 -3 4 -12 1 -19z
m-320 -20 c-3 -7 -5 -2 -5 12 0 14 2 19 5 13 2 -7 2 -19 0 -25z m507 -8 c-6
22 -5 23 10 8 16 -17 12 -53 -5 -42 -5 3 -9 -10 -10 -28 -1 -30 -2 -29 -15 17
-20 75 -18 98 7 55 14 -25 18 -28 13 -10z m-177 -22 c-3 -8 -6 -5 -6 6 -1 11
2 17 5 13 3 -3 4 -12 1 -19z m-303 -78 l-7 -25 -7 25 c-5 14 -8 41 -9 60 l0
35 15 -35 c9 -21 12 -45 8 -60z m313 28 c-3 -8 -6 -5 -6 6 -1 11 2 17 5 13 3
-3 4 -12 1 -19z m32 -123 c-2 -17 -27 69 -27 90 0 11 6 -2 14 -30 7 -27 13
-54 13 -60z m-502 63 c-3 -8 -6 -5 -6 6 -1 11 2 17 5 13 3 -3 4 -12 1 -19z
m-37 -32 c0 6 7 11 15 11 18 0 20 -17 3 -18 -10 0 -10 -2 -1 -5 13 -6 6 -34
-9 -34 -5 0 -6 5 -3 10 3 6 -1 10 -9 10 -17 0 -39 34 -29 44 3 3 12 -2 19 -12
7 -9 14 -12 14 -6z m300 0 c0 -10 13 -16 38 -19 21 -2 6 -4 -35 -5 -39 -1 -80
-5 -90 -8 -15 -5 -15 -4 -3 5 8 6 26 11 40 12 14 0 19 3 11 6 -11 5 -11 7 0
14 21 13 39 11 39 -5z m-250 -30 c0 -28 -4 -34 -25 -39 l-26 -4 21 19 c11 10
20 28 20 38 0 11 2 20 5 20 3 0 5 -15 5 -34z m689 -1 c22 -5 29 -10 21 -15 -9
-6 -4 -12 16 -23 l29 -16 -40 6 c-58 8 -75 20 -75 51 0 15 4 22 8 16 4 -6 22
-15 41 -19z m1278 -17 c-3 -8 -6 -5 -6 6 -1 11 2 17 5 13 3 -3 4 -12 1 -19z
m-2134 -37 c5 0 6 -5 2 -10 -3 -5 4 -11 15 -13 17 -2 11 -9 -27 -31 -26 -16
-42 -23 -35 -16 10 11 8 17 -10 30 -18 14 -20 20 -10 32 10 12 27 14 65 8z
m1097 -1 c-13 -9 -13 -10 0 -11 8 0 4 -4 -10 -8 -23 -7 -22 -9 18 -21 80 -25
35 -20 -69 7 -113 30 -110 37 16 41 43 2 56 0 45 -8z m113 -75 c26 -8 45 -10
42 -5 -3 5 3 8 14 7 11 0 17 -5 14 -10 -3 -4 3 -15 13 -22 16 -12 12 -12 -26
-1 -46 14 -119 44 -110 45 3 0 27 -6 53 -14z m-589 -27 c77 -10 86 -13 57 -19
-18 -4 -36 -11 -40 -16 -3 -4 -22 -9 -41 -10 -19 0 -27 1 -18 4 15 4 15 6 -3
24 -16 16 -33 19 -116 19 -59 0 -93 -4 -84 -9 9 -6 10 -11 2 -15 -6 -4 -11
-19 -12 -34 l-1 -27 -8 25 c-4 14 -8 35 -9 48 -1 21 2 22 91 22 50 0 132 -5
182 -12z m-401 -100 c9 -45 15 -84 12 -86 -3 -3 -5 0 -5 7 0 6 -11 23 -25 37
-14 14 -25 31 -25 39 0 18 -52 14 -77 -6 -14 -10 -13 -8 2 10 l20 24 -32 -5
c-18 -2 -33 -3 -33 -1 0 8 111 57 140 62 3 1 13 -36 23 -81z m1182 54 c19 -10
53 -16 92 -15 41 0 61 -3 56 -10 -3 -6 -1 -7 5 -3 20 12 33 -3 22 -24 -7 -14
-5 -21 13 -34 20 -14 18 -14 -18 0 -22 9 -73 32 -113 50 -40 19 -84 37 -98 40
-13 3 -27 11 -30 16 -8 12 29 2 71 -20z m-436 -19 c36 -10 57 -19 47 -21 -15
-3 -16 -6 -5 -13 9 -6 1 -7 -21 -3 -23 4 -30 2 -22 -4 11 -7 10 -11 -1 -21
-19 -15 -15 -104 7 -155 9 -22 15 -41 13 -43 -5 -5 -63 133 -93 220 -20 59
-21 68 -7 63 9 -4 46 -14 82 -23z m641 -3 c0 -5 -2 -10 -4 -10 -3 0 -8 5 -11
10 -3 6 -1 10 4 10 6 0 11 -4 11 -10z m-1588 -46 c-18 -14 -30 -30 -26 -35 3
-5 0 -8 -8 -7 -7 2 -12 -4 -10 -12 2 -8 0 -12 -4 -8 -4 4 -14 3 -23 -4 -9 -6
7 12 36 41 28 28 55 51 60 51 4 0 -7 -12 -25 -26z m748 -74 c-1 -3 -7 6 -15
20 -8 14 -14 19 -15 11 0 -9 -6 -7 -19 8 -14 16 -21 18 -24 9 -4 -9 -6 -9 -6
-1 -2 20 17 24 33 7 15 -14 16 -14 16 0 0 9 -4 16 -10 16 -5 0 -7 7 -3 16 4
11 12 2 25 -32 10 -27 18 -51 18 -54z m379 69 c23 -7 38 -16 34 -22 -4 -6 0
-8 10 -4 9 3 27 2 39 -4 22 -9 22 -9 -2 -5 -14 3 -38 -1 -53 -9 -25 -13 -27
-12 -33 11 -4 14 -11 21 -18 17 -6 -3 -8 -2 -3 2 4 5 -5 15 -20 22 -29 14 -23
13 46 -8z m-1113 -28 c-3 -5 8 -14 24 -20 17 -5 30 -13 30 -17 0 -3 -7 -3 -16
0 -9 3 -21 3 -27 -1 -22 -14 -39 -13 -27 2 6 7 10 17 9 21 -2 14 0 24 7 24 3
0 3 -4 0 -9z m370 -23 c-4 7 -2 12 7 12 7 0 23 -23 35 -50 18 -41 20 -55 11
-72 -9 -16 -13 -18 -19 -7 -5 7 -6 -7 -3 -32 3 -24 3 -41 -1 -37 -6 5 -55 179
-56 197 0 2 8 -3 17 -10 11 -10 14 -10 9 -1z m1022 -56 c57 -24 101 -47 98
-49 -2 -2 -18 3 -36 12 -30 15 -33 15 -53 -2 -11 -10 -17 -12 -12 -4 6 10 4
13 -7 9 -9 -4 -15 0 -15 8 0 8 5 14 11 15 11 0 -62 37 -77 38 -5 1 -5 -3 -2
-9 4 -6 -1 -7 -11 -3 -13 5 -14 8 -4 11 8 3 2 10 -16 18 -71 34 27 -1 124 -44z
m406 23 c-4 -8 -1 -15 5 -15 6 0 11 5 11 11 0 5 5 7 11 3 8 -5 6 -10 -5 -16
-13 -7 -14 -13 -6 -29 6 -11 16 -16 22 -13 7 4 8 3 4 -4 -4 -7 -3 -12 3 -12 5
0 16 -6 23 -13 16 -16 95 -67 103 -67 4 0 4 4 1 9 -6 10 24 25 32 16 3 -3 0
-5 -6 -5 -16 0 -15 -12 4 -36 14 -18 15 -18 4 5 -9 18 -9 22 0 19 6 -2 11 -7
10 -11 -1 -5 6 -19 14 -32 13 -19 -7 -11 -86 38 -57 35 -134 81 -172 102 l-68
38 28 13 c42 18 75 18 68 -1z m-1045 -40 c0 -5 -4 -3 -9 5 -5 8 -9 22 -9 30 0
16 17 -16 18 -35z m-532 -17 c-3 -8 -6 -5 -6 6 -1 11 2 17 5 13 3 -3 4 -12 1
-19z m553 -33 c0 -5 -5 -3 -10 5 -5 8 -10 20 -10 25 0 6 5 3 10 -5 5 -8 10
-19 10 -25z m-516 -89 c15 -54 25 -101 22 -104 -3 -3 -6 2 -6 11 0 10 -5 17
-11 17 -5 0 -7 5 -4 10 10 16 -17 11 -37 -6 -16 -15 -18 -15 -24 -1 -3 9 -11
15 -17 13 -7 -1 -9 -1 -4 1 4 3 7 13 7 23 0 10 5 22 11 25 6 4 8 14 5 22 -5
11 -2 13 11 9 16 -6 16 -6 0 12 -21 23 -22 43 -2 36 11 -4 15 0 15 17 0 35 6
21 34 -85z m-77 42 c-3 -8 -6 -5 -6 6 -1 11 2 17 5 13 3 -3 4 -12 1 -19z
m1608 -90 c14 -14 -47 13 -67 30 -9 8 -21 11 -27 8 -5 -4 -12 -2 -16 3 -3 5
-15 8 -27 6 -29 -6 -41 4 -27 21 10 12 8 13 -7 8 -10 -4 -16 -4 -12 1 4 4 0
14 -10 22 -9 8 28 -9 83 -37 55 -29 105 -56 110 -62z m-950 -26 c-2 -3 -7 3
-11 12 -3 9 -10 13 -15 10 -5 -3 -6 3 -2 12 3 10 0 22 -8 28 -8 6 -15 25 -15
41 -1 24 4 18 27 -34 16 -35 27 -66 24 -69z m140 89 c-2 -4 2 -8 9 -8 8 0 12
7 8 15 -3 10 0 13 9 10 8 -3 13 -16 12 -29 -1 -13 1 -18 3 -11 9 20 19 14 19
-12 0 -13 -4 -22 -9 -18 -5 3 -7 -1 -4 -9 3 -8 2 -23 -2 -34 -6 -16 -13 -7
-38 47 -36 74 -39 86 -17 68 8 -7 13 -16 10 -19z m1275 -7 c0 -8 -4 -12 -10
-9 -5 3 -10 10 -10 16 0 5 5 9 10 9 6 0 10 -7 10 -16z m-51 -75 c12 -20 11
-21 -4 -15 -16 6 -16 4 -4 -11 12 -15 12 -16 -4 -10 -28 10 -2 -31 29 -45 13
-6 24 -15 24 -20 0 -5 -30 12 -67 38 -63 44 -114 86 -86 70 7 -4 21 -2 30 3
30 17 67 13 82 -10z m-2045 -7 c3 -5 -1 -9 -9 -9 -8 0 -12 4 -9 9 3 4 7 8 9 8
2 0 6 -4 9 -8z m1859 -117 c65 -43 83 -69 36 -52 -16 7 -27 17 -25 23 3 8 -3
10 -16 6 -14 -3 -19 -1 -15 6 9 14 -89 86 -104 76 -8 -4 -9 -3 -5 4 4 7 1 12
-7 12 -8 0 -17 7 -21 15 -5 15 28 -5 157 -90z m-1550 71 c12 12 28 -38 21 -71
-5 -29 -3 -35 10 -35 10 0 14 -4 11 -10 -3 -5 -1 -10 4 -10 6 0 10 -22 9 -51
-1 -64 -8 -54 -54 84 -36 108 -41 132 -20 105 7 -10 16 -15 19 -12z m575 -11
c-3 -3 -9 2 -12 12 -6 14 -5 15 5 6 7 -7 10 -15 7 -18z m-113 -107 c18 -38 30
-68 26 -68 -7 0 -68 121 -79 155 -8 24 22 -25 53 -87z m141 60 c14 -27 18 -29
26 -15 10 19 28 23 28 6 0 -5 -4 -8 -9 -5 -5 3 -8 -5 -8 -19 0 -14 4 -22 10
-18 5 3 7 1 3 -5 -8 -13 24 -79 41 -86 7 -3 15 0 19 6 4 7 3 8 -4 4 -7 -4 -12
-3 -12 1 0 5 9 14 20 21 19 11 19 9 16 -46 -4 -50 0 -63 26 -104 17 -27 35
-45 41 -41 5 3 7 1 3 -5 -3 -6 1 -18 10 -26 18 -18 34 -21 34 -6 0 6 5 10 10
10 6 0 10 -10 10 -23 0 -13 7 -32 16 -43 8 -10 13 -13 9 -7 -4 8 -1 11 9 7 22
-8 31 -45 15 -55 -11 -7 -10 -9 3 -9 9 0 20 -4 23 -10 3 -6 -1 -7 -9 -4 -9 3
-16 3 -16 -1 0 -12 68 -84 74 -79 3 2 4 1 1 -3 -9 -11 57 -73 69 -65 6 4 26
12 43 18 32 11 33 11 29 -17 -1 -16 -6 -32 -9 -36 -12 -11 -7 -24 6 -17 9 6 9
4 -1 -8 -11 -14 -5 -23 45 -67 31 -28 62 -50 67 -50 25 3 70 -3 59 -8 -7 -2
-13 -11 -13 -19 0 -31 -28 -12 -160 109 -99 92 -235 248 -321 370 -99 140
-240 377 -224 377 2 0 12 -14 21 -32z m1243 18 c11 -14 6 -15 -27 -7 -4 1 8
21 12 21 2 0 9 -6 15 -14z m9 -22 c20 7 39 -18 47 -63 2 -13 6 -25 7 -25 22
-14 59 -46 53 -46 -4 0 -25 14 -47 31 -30 25 -36 34 -26 41 9 7 8 8 -6 4 -24
-8 -50 12 -36 29 7 8 5 12 -5 12 -8 0 -12 -4 -9 -9 3 -4 1 -8 -4 -8 -12 0 -36
28 -38 46 -2 10 3 10 21 -2 13 -9 32 -13 43 -10z m-207 -81 c13 -16 12 -17 -3
-4 -10 7 -18 15 -18 17 0 8 8 3 21 -13z m160 -121 c12 -15 12 -16 -2 -4 -9 7
-25 10 -35 6 -12 -3 -14 -3 -8 3 13 9 -1 26 -26 31 -8 2 -17 8 -18 13 -2 5 -7
7 -11 5 -4 -3 -7 3 -7 13 0 15 8 12 47 -16 26 -18 53 -41 60 -51z m-1281 29
c7 -15 7 -19 -5 -17 -8 1 -18 6 -22 11 -5 4 -2 5 6 0 11 -6 13 -4 8 8 -9 23 0
21 13 -2z m-433 -51 c2 -2 8 2 12 9 5 7 14 10 20 7 16 -10 13 -26 -5 -26 -13
0 -15 -6 -9 -27 3 -16 11 -32 16 -38 7 -7 8 -4 4 6 -4 10 -2 20 4 24 6 3 11 2
11 -2 0 -5 7 -18 16 -29 15 -19 15 -19 5 2 -5 11 -6 26 -1 34 6 9 10 2 15 -26
3 -21 8 -47 10 -56 2 -10 0 -18 -4 -18 -4 0 -12 -12 -17 -27 l-10 -28 -28 55
c-27 52 -76 173 -76 187 0 4 8 -4 17 -17 9 -14 18 -27 20 -30z m506 -69 c30
-46 42 -71 34 -75 -7 -2 -5 -5 4 -5 9 -1 24 -12 33 -26 l17 -25 -40 27 c-22
16 -40 32 -41 36 0 5 5 5 11 1 7 -4 10 -1 7 7 -3 8 -11 13 -18 11 -7 -2 -10 3
-7 11 3 8 2 18 -2 23 -13 15 -53 84 -48 84 2 0 25 -31 50 -69z m1397 -77 c0
-8 -9 -14 -21 -14 -11 0 -17 5 -14 10 3 6 2 10 -4 10 -6 0 -8 6 -5 14 3 8 0
17 -7 22 -7 4 -10 3 -5 -4 3 -6 2 -13 -3 -17 -6 -3 -8 3 -6 15 2 11 0 22 -6
25 -5 4 -9 1 -9 -6 0 -21 -23 7 -25 30 -1 16 9 10 52 -26 29 -25 53 -52 53
-59z m-1775 87 c3 -5 1 -12 -4 -15 -5 -3 -11 1 -15 9 -6 16 9 21 19 6z m107
-182 c1 5 9 2 17 -6 12 -13 10 -14 -10 -12 -13 2 -29 0 -35 -3 -6 -4 -20 -1
-30 8 -18 14 -18 15 4 4 21 -10 27 -7 23 14 -1 5 4 4 12 -3 9 -7 17 -8 19 -2z
m1832 -50 c14 -17 24 -35 21 -39 -3 -5 0 -12 6 -16 8 -4 9 -3 5 4 -13 21 0 13
25 -15 13 -16 17 -23 10 -16 -11 10 -17 9 -26 -4 -10 -13 -14 -13 -20 -3 -6 9
-4 11 5 5 9 -6 11 -4 5 4 -4 7 -16 11 -26 8 -14 -4 -19 0 -19 13 0 11 -4 21
-9 24 -4 3 -11 19 -15 36 -3 17 -10 29 -14 26 -5 -3 -9 1 -9 9 0 20 28 3 61
-36z m-1673 -26 c8 -9 9 -14 3 -10 -6 3 -20 0 -30 -8 -10 -8 -14 -15 -7 -15 6
0 14 4 17 9 9 13 69 7 74 -8 3 -8 0 -11 -6 -7 -5 3 -12 0 -15 -8 -6 -14 38
-40 52 -32 4 3 8 -1 8 -9 0 -10 -5 -11 -16 -5 -9 4 -42 20 -74 34 -42 18 -56
29 -50 38 4 7 8 16 9 21 3 15 4 17 13 17 5 0 15 -8 22 -17z m36 11 c-3 -3 -12
-4 -19 -1 -8 3 -5 6 6 6 11 1 17 -2 13 -5z m-97 -8 c0 -2 -7 -7 -16 -10 -8 -3
-12 -2 -9 4 6 10 25 14 25 6z m1633 -283 c-7 -2 -19 -2 -25 0 -7 3 -2 5 12 5
14 0 19 -2 13 -5z m-465 -30 c-15 -2 -42 -2 -60 0 -18 2 -6 4 27 4 33 0 48 -2
33 -4z m220 0 c-10 -2 -28 -2 -40 0 -13 2 -5 4 17 4 22 1 32 -1 23 -4z"/>
<path d="M3893 8863 c-7 -15 -11 -29 -8 -31 3 -3 5 0 5 6 0 6 8 9 18 6 13 -5
14 -4 3 4 -11 8 -11 10 0 15 10 3 11 8 4 15 -7 8 -14 3 -22 -15z"/>
<path d="M4832 8230 c0 -14 2 -19 5 -12 2 6 2 18 0 25 -3 6 -5 1 -5 -13z"/>
<path d="M4386 7335 c4 -8 8 -15 10 -15 2 0 4 7 4 15 0 8 -4 15 -10 15 -5 0
-7 -7 -4 -15z"/>
<path d="M5170 6840 c-8 -5 -10 -10 -5 -10 6 0 17 5 25 10 8 5 11 10 5 10 -5
0 -17 -5 -25 -10z"/>
<path d="M4305 6711 c-3 -6 1 -21 10 -33 16 -23 16 -23 9 7 -8 37 -10 39 -19
26z"/>
<path d="M5020 6671 c0 -11 4 -23 10 -26 6 -3 7 1 4 9 -3 9 -1 16 6 16 6 0 8
5 5 10 -10 17 -25 11 -25 -9z"/>
<path d="M5330 6030 c-9 -6 -10 -10 -3 -10 6 0 15 5 18 10 8 12 4 12 -15 0z"/>
<path d="M5466 5821 c-3 -5 2 -17 12 -28 9 -10 14 -14 10 -8 -4 7 -5 15 -1 18
3 4 1 7 -6 7 -7 0 -9 5 -6 10 3 6 4 10 1 10 -3 0 -7 -4 -10 -9z"/>
<path d="M5710 5526 c0 -2 8 -10 18 -17 15 -13 16 -12 3 4 -13 16 -21 21 -21
13z"/>
<path d="M5870 5386 c0 -2 8 -10 18 -17 15 -13 16 -12 3 4 -13 16 -21 21 -21
13z"/>
<path d="M9866 10180 c-7 -17 -16 -27 -20 -23 -4 4 -4 0 0 -10 3 -10 1 -17 -5
-17 -10 0 -15 14 -12 34 1 4 -20 -7 -46 -26 -26 -19 -72 -51 -101 -72 -29 -21
-49 -42 -45 -49 4 -6 1 -8 -8 -5 -20 8 -112 -59 -103 -74 4 -7 3 -8 -5 -4 -11
7 -67 -31 -389 -264 -56 -41 -98 -76 -92 -78 6 -2 7 -8 4 -14 -4 -6 -9 -6 -14
3 -6 9 -19 3 -49 -22 -34 -28 -51 -56 -95 -159 -130 -304 -196 -461 -196 -466
0 -3 14 5 30 18 38 28 102 86 76 67 -18 -12 -19 -12 -13 4 3 9 3 17 -2 17 -5
0 -7 15 -6 33 4 47 4 47 16 47 5 0 8 -4 5 -9 -3 -5 6 -12 20 -15 26 -7 26 -7
8 -27 -17 -19 -17 -20 1 -13 14 6 16 4 10 -6 -5 -9 -4 -11 4 -6 6 4 9 12 6 17
-3 5 0 7 7 4 7 -2 29 10 48 26 20 18 25 26 13 20 -12 -6 -25 -16 -28 -21 -3
-6 -12 -10 -18 -10 -7 0 -4 5 5 10 10 6 15 19 13 31 -3 15 -1 18 8 11 22 -18
53 -7 110 37 59 45 77 66 31 36 -28 -18 -43 -15 -20 4 8 7 25 13 38 13 34 2
183 119 166 131 -9 6 -8 7 5 3 20 -7 170 100 161 115 -3 5 1 7 8 4 7 -2 29 10
48 28 19 18 31 29 26 25 -21 -17 -38 -8 -34 17 4 21 3 23 -13 14 -12 -6 -19
-6 -19 0 0 5 6 12 13 14 6 3 2 6 -11 6 -40 2 -13 21 29 21 43 0 46 -5 23 -39
-16 -22 -16 -22 4 -10 11 7 18 17 16 21 -3 4 10 6 30 4 22 -3 39 0 46 10 7 7
9 14 5 14 -4 0 -3 6 2 13 6 6 9 19 8 28 -2 12 6 16 31 16 18 0 31 -4 28 -9 -3
-5 -12 -7 -19 -6 -8 2 -14 -1 -14 -5 0 -5 -8 -15 -18 -23 -10 -7 -14 -14 -10
-14 5 0 24 12 44 27 33 25 34 28 16 41 -16 12 -16 13 -1 10 9 -2 24 6 33 17
16 19 16 19 5 -3 -7 -13 -10 -26 -7 -28 4 -4 30 53 44 96 4 12 3 12 -5 2 -13
-19 -55 6 -46 28 4 8 7 21 7 28 0 7 8 10 19 6 10 -3 18 -1 18 5 0 6 7 8 15 5
11 -5 12 -11 5 -24 -6 -10 -10 -22 -10 -27 1 -16 31 48 94 199 35 84 71 170
79 191 9 20 14 37 11 37 -3 0 -11 -14 -18 -30z m-38 -80 c-14 -23 -17 -21 -24
14 -4 24 -3 26 16 16 17 -9 18 -14 8 -30z m-43 11 c-3 -6 -11 -11 -16 -11 -5
0 -4 6 3 14 14 16 24 13 13 -3z m-45 -25 c0 -2 -8 -10 -17 -17 -16 -13 -17
-12 -4 4 13 16 21 21 21 13z m42 -103 c-6 -34 -18 -36 -17 -4 0 15 5 28 11 28
6 0 9 -11 6 -24z m-207 -41 c-3 -3 -11 0 -18 7 -9 10 -8 11 6 5 10 -3 15 -9
12 -12z m-85 -52 c0 -5 -4 -10 -10 -10 -5 0 -10 5 -10 10 0 6 5 10 10 10 6 0
10 -4 10 -10z m-35 -38 c-1 -1 -11 -4 -21 -6 -11 -3 -28 -7 -39 -11 l-20 -7
20 13 c11 7 27 20 35 30 14 17 15 17 21 1 4 -9 5 -18 4 -20z m75 14 c0 -15 -7
-26 -20 -29 -18 -5 -19 -3 -4 24 18 35 24 37 24 5z m-300 -151 c0 -2 -10 -9
-22 -15 -22 -11 -22 -10 -4 4 21 17 26 19 26 11z m-62 -49 c-7 -8 -15 -12 -17
-11 -5 6 10 25 20 25 5 0 4 -6 -3 -14z m172 4 c0 -5 -4 -10 -10 -10 -5 0 -10
5 -10 10 0 6 5 10 10 10 6 0 10 -4 10 -10z m-230 -40 c0 -5 -5 -10 -11 -10 -5
0 -7 5 -4 10 3 6 8 10 11 10 2 0 4 -4 4 -10z m-37 -25 c-3 -9 -8 -14 -10 -11
-3 3 -2 9 2 15 9 16 15 13 8 -4z m-93 -69 c0 -2 -7 -7 -16 -10 -8 -3 -12 -2
-9 4 6 10 25 14 25 6z m385 -76 c-3 -5 -12 -10 -18 -10 -7 0 -6 4 3 10 19 12
23 12 15 0z m-412 -40 c-3 -12 -8 -19 -11 -16 -5 6 5 36 12 36 2 0 2 -9 -1
-20z m233 -83 c17 6 18 5 5 -11 -8 -9 -20 -15 -28 -12 -8 3 -12 2 -9 -3 3 -5
-2 -15 -11 -22 -14 -12 -15 -11 -8 10 5 18 4 22 -5 16 -9 -5 -11 -4 -6 4 4 6
12 9 17 6 5 -4 9 2 9 12 0 13 3 15 8 5 5 -8 16 -10 28 -5z m-156 -100 c13 4
13 3 0 -6 -23 -16 -36 -13 -36 10 0 16 2 18 11 6 5 -7 17 -12 25 -10z m-190
-2 c-14 -17 -1 -20 18 -5 9 7 9 7 2 -2 -6 -7 -6 -16 1 -25 14 -17 -2 -17 -25
0 -18 13 -13 47 6 47 6 0 5 -6 -2 -15z"/>
<path d="M6100 10150 c0 -5 5 -10 10 -10 6 0 10 5 10 10 0 6 -4 10 -10 10 -5
0 -10 -4 -10 -10z"/>
<path d="M9500 9560 c-8 -5 -12 -12 -9 -15 4 -3 12 1 19 10 14 17 11 19 -10 5z"/>
<path d="M9350 9261 c-383 -293 -793 -616 -801 -631 -5 -8 -89 -204 -188 -435
-324 -760 -613 -1430 -620 -1438 -5 -4 -67 124 -139 285 -147 331 -339 764
-561 1263 -83 187 -155 347 -160 355 -13 23 -637 27 -806 5 -163 -21 -295 -45
-295 -55 0 -9 11 -34 305 -685 114 -253 284 -631 377 -840 255 -570 672 -1503
696 -1558 25 -57 17 -58 177 16 244 114 446 245 706 460 l97 80 328 766 c421
984 521 1218 831 1946 140 330 257 603 260 608 14 23 -32 -9 -207 -142z"/>
<path d="M3751 8629 c-1 -9 7 -23 17 -30 15 -12 16 -12 6 1 -6 8 -14 22 -17
30 -5 13 -6 12 -6 -1z"/>
<path d="M5855 7918 c4 -13 11 -27 16 -33 5 -5 4 5 -2 23 -12 36 -24 44 -14
10z"/>
<path d="M3710 7770 c-8 -5 -10 -10 -5 -10 6 0 17 5 25 10 8 5 11 10 5 10 -5
0 -17 -5 -25 -10z"/>
<path d="M3740 7750 c-9 -6 -10 -10 -3 -10 6 0 15 5 18 10 8 12 4 12 -15 0z"/>
<path d="M3662 7540 c0 -14 2 -19 5 -12 2 6 2 18 0 25 -3 6 -5 1 -5 -13z"/>
<path d="M3921 6740 c16 -33 16 -33 23 -13 4 9 4 14 0 10 -4 -4 -13 1 -21 11
-12 15 -13 14 -2 -8z"/>
<path d="M4236 6258 c3 -5 10 -6 15 -3 13 9 11 12 -6 12 -8 0 -12 -4 -9 -9z"/>
<path d="M4460 6026 c0 -2 8 -10 18 -17 15 -13 16 -12 3 4 -13 16 -21 21 -21
13z"/>
<path d="M5548 5413 c7 -3 16 -2 19 1 4 3 -2 6 -13 5 -11 0 -14 -3 -6 -6z"/>
<path d="M6900 5410 c-20 -6 -21 -8 -5 -8 11 0 29 3 40 8 25 11 -1 11 -35 0z"/>
<path d="M1135 3810 c-67 -32 -119 -89 -134 -148 -5 -20 -46 -178 -91 -351
-88 -335 -93 -375 -53 -430 44 -60 54 -61 433 -59 l345 3 22 89 c12 48 24 99
27 112 l6 24 -285 0 c-262 0 -286 1 -292 17 -10 26 111 497 134 523 3 3 136 7
296 10 l291 5 22 90 c13 50 26 100 29 113 l5 22 -357 0 c-332 0 -361 -2 -398
-20z"/>
<path d="M2184 3816 c-51 -22 -110 -82 -132 -134 -29 -68 -182 -672 -182 -719
0 -50 33 -102 80 -125 31 -16 71 -18 366 -18 l330 0 54 28 c95 48 99 56 201
447 99 380 103 414 59 475 -41 58 -56 60 -417 60 -255 -1 -335 -4 -359 -14z
m523 -233 c10 -26 -114 -505 -134 -520 -12 -10 -72 -13 -214 -13 -145 0 -199
3 -207 13 -14 17 113 507 136 525 11 9 71 12 214 12 179 0 199 -2 205 -17z"/>
<path d="M3235 3818 c-2 -7 -41 -157 -85 -333 -45 -176 -92 -364 -106 -417
-21 -81 -23 -104 -14 -136 13 -50 63 -99 113 -113 25 -7 153 -9 351 -7 312 3
312 3 361 29 83 42 106 83 153 270 23 90 73 286 112 434 38 149 70 273 70 278
0 4 -57 7 -128 7 l-127 0 -94 -375 c-61 -245 -100 -380 -111 -390 -14 -12 -50
-15 -212 -15 -227 0 -226 0 -204 76 20 67 176 685 176 696 0 14 -250 10 -255
-4z"/>
<path d="M4400 3827 c0 -5 -96 -383 -180 -713 -39 -149 -70 -276 -70 -283 0
-8 38 -11 124 -11 l123 0 51 198 c28 108 73 284 98 390 l47 192 203 0 c184 0
203 -2 208 -17 7 -22 -27 -158 -44 -178 -9 -11 -47 -15 -168 -17 l-155 -3 -22
-80 c-12 -44 -25 -92 -28 -107 l-7 -28 57 0 58 0 73 -175 74 -175 135 0 c124
0 135 1 130 18 -3 9 -35 82 -72 162 -37 80 -69 151 -72 158 -3 8 5 12 28 12
62 1 142 49 183 112 9 14 37 105 62 203 50 198 51 233 7 286 -50 59 -47 59
-463 59 -209 0 -380 -2 -380 -3z"/>
<path d="M5426 3725 c-14 -57 -26 -109 -26 -115 0 -6 57 -10 161 -10 148 0
160 -1 155 -17 -3 -10 -46 -177 -95 -371 -50 -195 -93 -362 -96 -373 -6 -19
-2 -19 121 -17 l128 3 100 388 100 387 158 0 c87 0 158 3 158 8 0 4 14 55 30
115 l29 107 -448 0 -449 0 -26 -105z"/>
<path d="M7680 3809 c-36 -3 -50 -6 -30 -7 27 -2 31 -5 20 -12 -8 -5 -10 -10
-5 -10 6 0 3 -5 -5 -10 -13 -8 -13 -10 0 -10 10 0 7 -5 -8 -16 -12 -8 -22 -21
-22 -27 0 -7 7 -3 15 7 12 15 17 17 29 7 14 -11 13 -16 -1 -37 -8 -13 -13 -24
-9 -24 7 0 60 81 62 95 1 6 2 16 3 23 0 6 7 12 15 12 8 0 17 4 20 8 3 5 0 8
-7 8 -7 -1 -41 -4 -77 -7z"/>
<path d="M8510 3810 c-63 -9 -90 -18 -90 -31 0 -6 9 -5 21 1 11 6 25 9 32 6 9
-3 9 -5 0 -5 -7 -1 -10 -7 -7 -15 6 -17 -32 -41 -41 -26 -3 5 -13 6 -22 3 -11
-4 -14 -3 -9 5 13 21 -10 13 -31 -10 -30 -34 -56 -87 -35 -75 4 3 7 -14 8 -36
1 -23 4 -63 7 -89 5 -46 -2 -62 -27 -63 -5 0 -11 -6 -14 -14 -3 -9 0 -11 8 -6
9 6 11 4 5 -5 -6 -10 -12 -7 -26 11 l-19 24 0 -57 c0 -94 29 -144 105 -179 34
-16 66 -19 220 -19 131 0 185 -3 194 -12 10 -9 12 -9 7 -1 -4 8 1 11 14 10 19
-1 29 -17 11 -17 -6 0 -9 -8 -9 -17 3 -36 -33 -133 -52 -143 -11 -6 -117 -10
-269 -10 -203 0 -249 -3 -245 -13 5 -14 -20 -40 -48 -50 -9 -3 -19 -1 -21 6
-2 7 -9 -13 -16 -43 -6 -30 -14 -64 -17 -76 -4 -15 -1 -21 13 -21 10 0 23 3
28 7 16 12 98 10 114 -3 11 -10 -5 -13 -80 -18 -52 -3 57 -6 242 -7 381 -2
399 0 467 70 44 44 78 139 68 187 -4 16 -3 21 2 13 6 -9 15 14 26 67 14 63 15
87 6 120 -12 47 -21 54 -15 13 2 -20 -1 -29 -12 -29 -10 0 -13 7 -9 21 4 18 3
19 -7 6 -11 -14 -14 -14 -29 1 -9 10 -13 19 -7 21 5 2 10 15 11 30 2 23 5 25
23 16 20 -11 20 -10 2 10 -38 43 -127 69 -127 37 0 -8 -6 -15 -14 -15 -8 0
-16 -7 -20 -15 -4 -11 -13 -14 -33 -9 -36 9 -36 9 -28 33 4 15 17 21 48 24 23
2 -40 4 -140 3 -100 0 -180 1 -178 3 3 2 0 13 -6 25 -9 17 -7 17 11 -4 12 -14
19 -19 15 -11 -13 24 -23 81 -14 75 5 -3 9 5 9 18 0 18 -2 20 -10 8 -16 -25
-10 3 6 30 10 16 13 18 9 6 -6 -20 -6 -20 16 0 19 18 42 19 292 24 l271 5 24
98 c14 54 22 100 20 103 -9 8 -569 12 -628 4z m58 -17 c-10 -2 -28 -2 -40 0
-13 2 -5 4 17 4 22 1 32 -1 23 -4z m259 1 c-3 -3 -12 -4 -19 -1 -8 3 -5 6 6 6
11 1 17 -2 13 -5z m60 0 c-3 -3 -12 -4 -19 -1 -8 3 -5 6 6 6 11 1 17 -2 13 -5z
m167 -3 c4 -5 0 -12 -6 -14 -7 -3 -1 -6 13 -6 23 -1 26 -4 21 -28 -3 -15 -11
-34 -19 -41 -18 -19 -16 -42 5 -42 14 0 15 -2 2 -10 -13 -8 -12 -10 3 -10 21
0 18 -22 -4 -28 -11 -3 -11 -2 1 7 13 9 13 11 -2 11 -10 0 -18 4 -18 9 0 4
-11 6 -25 3 -18 -3 -25 0 -25 12 0 9 7 19 15 22 8 4 15 10 15 15 0 5 -7 9 -15
9 -8 0 -15 -4 -15 -10 0 -18 -18 -10 -25 10 -4 11 -11 18 -16 14 -5 -3 -7 -9
-4 -14 3 -5 1 -11 -5 -15 -6 -4 -10 8 -10 28 0 31 3 35 23 31 20 -4 21 -4 2 5
-11 5 -31 11 -45 12 -16 1 -8 5 20 9 39 6 40 7 13 8 -18 1 -33 7 -33 12 0 13
127 13 134 1z m-434 -71 c21 0 46 -27 35 -38 -4 -4 -10 -1 -12 6 -3 6 -20 12
-39 12 -33 0 -34 1 -23 22 8 14 14 18 17 10 2 -6 12 -12 22 -12z m480 -52 c0
-19 -2 -20 -10 -8 -13 19 -13 30 0 30 6 0 10 -10 10 -22z m-464 0 c4 -7 9 -22
10 -35 2 -21 -1 -23 -41 -23 -24 0 -49 -2 -57 -3 -7 -2 -9 -2 -4 1 4 2 3 8 -3
12 -8 4 0 13 21 23 18 9 26 17 18 17 -13 0 -13 1 0 10 21 13 47 12 56 -2z
m324 -48 c19 -6 12 -8 -30 -9 -39 0 -51 2 -40 9 17 11 35 11 70 0z m-172 -7
c-10 -2 -26 -2 -35 0 -10 3 -2 5 17 5 19 0 27 -2 18 -5z m-218 -203 c-20 -13
-33 -13 -25 0 3 6 14 10 23 10 15 0 15 -2 2 -10z m227 -86 c3 -8 -1 -22 -10
-31 -13 -14 -17 -13 -34 4 -11 11 -17 25 -15 31 6 18 52 15 59 -4z m-430 -7
c10 3 15 3 11 -2 -4 -4 -2 -15 5 -23 10 -13 9 -15 -8 -9 -19 7 -19 6 -2 -7 9
-7 17 -16 17 -20 0 -10 -41 13 -67 37 -26 23 -21 42 7 27 10 -5 27 -7 37 -3z
m593 -37 c0 -5 -5 -10 -11 -10 -5 0 -7 5 -4 10 3 6 8 10 11 10 2 0 4 -4 4 -10z
m-180 -25 c17 -20 15 -21 -55 -14 -48 4 -52 6 -20 7 30 2 36 5 25 12 -12 8 -9
10 11 10 15 0 32 -7 39 -15z m-167 -12 c-18 -2 -48 -2 -65 0 -18 2 -4 4 32 4
36 0 50 -2 33 -4z m219 -103 c-6 -17 -8 -38 -5 -48 6 -15 4 -15 -9 -4 -16 13
-12 51 7 82 13 21 17 1 7 -30z m175 -12 c-3 -7 -5 -2 -5 12 0 14 2 19 5 13 2
-7 2 -19 0 -25z m-157 -18 c0 -5 -4 -10 -10 -10 -5 0 -10 5 -10 10 0 6 5 10
10 10 6 0 10 -4 10 -10z m-470 -179 c5 -1 -49 -31 -56 -31 -1 0 -2 8 -1 18 1
17 19 21 57 13z m470 -81 c-8 -5 -19 -10 -25 -10 -5 0 -3 5 5 10 8 5 20 10 25
10 6 0 3 -5 -5 -10z m-377 -17 c-7 -2 -19 -2 -25 0 -7 3 -2 5 12 5 14 0 19 -2
13 -5z"/>
<path d="M8317 3309 c7 -7 15 -10 18 -7 3 3 -2 9 -12 12 -14 6 -15 5 -6 -5z"/>
<path d="M9385 3802 c-3 -8 -5 -21 -4 -30 0 -13 3 -11 11 6 10 19 19 22 66 22
51 0 54 -1 36 -15 -10 -8 -29 -15 -41 -15 -13 0 -22 -3 -22 -7 3 -20 -2 -34
-10 -29 -5 4 -11 1 -13 -5 -3 -8 -9 -6 -20 4 -14 14 -24 -18 -107 -356 -51
-205 -94 -383 -97 -397 -4 -22 -3 -23 5 -5 7 15 10 16 10 4 1 -8 15 -31 32
-50 18 -19 29 -28 25 -22 -5 9 -2 11 9 7 9 -4 13 -9 10 -12 -9 -9 27 -42 45
-42 10 0 20 -7 23 -15 5 -12 -12 -15 -101 -18 l-107 -3 121 -2 122 -2 15 63
c9 34 65 257 125 495 106 415 109 432 88 433 -136 6 -216 3 -221 -9z m215 -50
c0 -11 -7 -18 -19 -18 -30 0 -18 26 17 35 1 1 2 -7 2 -17z m-24 -106 c-4 -20
-11 -36 -16 -36 -11 0 -13 50 -4 75 12 29 27 -1 20 -39z m-225 -155 l-5 -26
-7 25 -7 25 -1 -24 c-1 -13 -4 -22 -7 -18 -3 3 -3 19 1 36 5 24 9 28 19 19 7
-7 10 -23 7 -37z m-34 -53 c-3 -8 -6 -5 -6 6 -1 11 2 17 5 13 3 -3 4 -12 1
-19z m-12 -58 c-9 -41 -17 -33 -9 9 4 17 9 30 11 27 3 -2 2 -19 -2 -36z m205
-2 c0 -4 -7 -8 -15 -8 -8 0 -15 4 -15 8 0 5 7 9 15 9 8 0 15 -4 15 -9z m-206
-73 c13 -35 19 -145 7 -145 -21 0 -26 5 -27 25 -2 46 -5 56 -14 50 -13 -8 -13
14 1 54 12 34 24 40 33 16z m-50 -157 c-5 -8 -2 -9 9 -5 11 4 17 1 17 -8 0 -8
-6 -15 -12 -16 -7 0 -3 -5 10 -11 23 -12 28 -23 13 -33 -6 -3 -14 3 -20 12 -9
15 -11 14 -11 -12 -1 -26 -3 -27 -10 -10 l-9 20 -1 -20 c-1 -18 -2 -17 -11 4
-10 27 5 91 22 91 6 0 7 -5 3 -12z m186 -41 c0 -8 -7 -14 -15 -14 -8 0 -15 6
-15 14 0 7 7 13 15 13 8 0 15 -6 15 -13z m-19 -63 c-9 -28 -9 -29 -10 -3 -1
14 2 29 6 32 11 12 13 2 4 -29z m-81 -19 c0 -9 -6 -12 -16 -8 -13 5 -13 7 -2
14 17 11 18 11 18 -6z"/>
<path d="M10005 3811 c-63 -7 -130 -35 -120 -51 3 -6 0 -8 -7 -5 -31 11 -85
-97 -102 -205 l-6 -35 13 32 c18 47 22 46 19 -3 -2 -24 -8 -41 -13 -38 -5 3
-6 -1 -3 -9 3 -8 1 -18 -5 -22 -7 -3 -11 3 -12 17 0 13 -30 -89 -65 -227 -70
-272 -78 -347 -39 -383 12 -11 15 -12 8 -2 -18 26 -22 58 -7 64 17 7 58 -35
44 -44 -6 -4 -8 -14 -5 -22 4 -11 0 -17 -12 -20 -13 -2 -9 -8 19 -21 32 -15
72 -17 350 -17 293 0 316 2 358 21 52 23 86 53 105 90 18 33 137 510 130 517
-3 3 -5 -3 -5 -14 -1 -19 -1 -19 -15 0 -15 20 -11 41 6 31 5 -4 5 4 0 19 -8
19 -6 29 10 47 10 12 19 27 19 33 0 6 4 5 9 -3 13 -20 34 88 26 132 -4 18 -17
47 -29 62 l-23 29 3 -35 c2 -19 1 -26 -2 -16 -3 9 -10 17 -15 17 -6 0 -8 -4
-5 -8 3 -5 -8 -19 -24 -30 -31 -23 -45 -28 -36 -13 4 5 0 12 -6 15 -7 3 -3 3
9 1 31 -8 39 13 9 24 -25 10 -29 32 -8 53 8 8 12 9 12 1 0 -6 -6 -14 -12 -16
-8 -3 -6 -6 5 -6 11 -1 17 6 17 19 0 11 -6 20 -12 21 -115 4 -538 4 -583 0z
m63 -22 c-11 -6 -29 -6 -50 0 -32 9 -31 9 17 10 38 0 46 -2 33 -10z m412 7 c0
-9 -39 -13 -51 -5 -10 6 -4 9 19 9 17 0 32 -2 32 -4z m-563 -41 c0 -8 -4 -12
-9 -9 -5 3 -6 10 -3 15 9 13 12 11 12 -6z m160 9 c-3 -3 -12 -4 -19 -1 -8 3
-5 6 6 6 11 1 17 -2 13 -5z m6 -21 c-7 -2 -19 -2 -25 0 -7 3 -2 5 12 5 14 0
19 -2 13 -5z m-242 -80 c13 -17 13 -17 -5 -3 -18 14 -19 13 -14 -2 4 -9 0 -24
-8 -35 -13 -17 -14 -16 -8 12 11 50 15 53 35 28z m-10 -60 c-12 -20 -14 -14
-5 12 4 9 9 14 11 11 3 -2 0 -13 -6 -23z m266 14 c3 -4 -8 -7 -25 -7 -17 0
-33 4 -36 8 -6 10 51 8 61 -1z m362 -4 c0 -11 -3 -13 -6 -5 -2 6 -10 9 -15 6
-7 -4 -8 -2 -4 4 11 18 26 14 25 -5z m-222 1 c-3 -3 -12 -4 -19 -1 -8 3 -5 6
6 6 11 1 17 -2 13 -5z m445 -26 c-8 -8 -9 -4 -5 13 4 13 8 18 11 10 2 -7 -1
-18 -6 -23z m-248 6 c23 -9 20 -43 -14 -178 -17 -65 -29 -124 -26 -130 2 -6 5
-1 5 12 1 13 5 21 10 17 5 -3 11 3 13 12 3 13 7 10 18 -14 8 -18 18 -33 22
-33 5 0 8 -4 8 -10 0 -5 -9 -10 -20 -10 -11 0 -20 -6 -20 -12 0 -7 -5 -20 -10
-28 -9 -13 -11 -13 -20 0 -8 12 -10 10 -8 -10 2 -19 -1 -25 -15 -23 -15 1 -18
-4 -14 -23 2 -13 1 -21 -3 -19 -4 3 -13 -15 -19 -40 -6 -24 -16 -47 -21 -50
-6 -4 -8 -9 -6 -13 2 -4 -73 -7 -167 -6 -95 0 -181 -3 -192 -7 -13 -5 -15 -8
-5 -9 13 0 13 -1 0 -10 -33 -21 -77 -2 -102 45 -10 18 -10 19 5 6 15 -12 17
-11 18 5 0 18 1 18 7 1 5 -12 15 11 30 70 46 183 105 428 105 440 0 7 3 10 7
8 3 -2 12 0 20 6 16 10 369 13 394 3z m76 -4 c0 -5 -2 -10 -4 -10 -3 0 -8 5
-11 10 -3 6 -1 10 4 10 6 0 11 -4 11 -10z m-43 -22 c-3 -8 -6 -5 -6 6 -1 11 2
17 5 13 3 -3 4 -12 1 -19z m-507 -149 c0 -5 -4 -7 -10 -4 -5 3 -10 1 -10 -6 0
-7 -3 -10 -6 -6 -8 7 4 27 17 27 5 0 9 -5 9 -11z m-213 -61 c-3 -8 -6 -5 -6 6
-1 11 2 17 5 13 3 -3 4 -12 1 -19z m-23 -211 c4 4 2 -5 -3 -21 -6 -15 -9 -32
-5 -37 3 -5 0 -9 -5 -9 -6 0 -11 7 -11 16 0 13 -3 14 -14 5 -12 -10 -14 -8 -9
11 10 48 12 51 27 39 7 -6 16 -8 20 -4z m169 -314 c-7 -2 -21 -2 -30 0 -10 3
-4 5 12 5 17 0 24 -2 18 -5z"/>
<path d="M10381 3254 c0 -11 3 -14 6 -6 3 7 2 16 -1 19 -3 4 -6 -2 -5 -13z"/>
<path d="M11045 3810 l-90 -5 -21 -95 c-12 -52 -33 -139 -48 -194 -28 -106
-33 -145 -15 -113 10 17 12 17 29 2 17 -16 18 -19 4 -41 -9 -12 -15 -25 -15
-28 2 -16 0 -17 -14 -6 -8 7 -15 22 -16 34 -1 29 -8 6 -74 -252 -54 -211 -54
-213 -35 -232 13 -13 20 -15 20 -7 1 6 7 1 15 -13 13 -25 13 -25 -33 -31 -30
-4 -3 -6 76 -7 110 -2 122 0 121 16 0 10 -3 12 -6 5 -2 -7 -12 -13 -21 -13
-14 0 -14 2 -3 9 11 7 11 9 0 14 -10 4 -10 6 -1 6 10 1 10 5 0 22 -10 17 -10
23 0 26 6 3 12 12 12 21 0 15 2 15 10 2 9 -13 10 -13 11 0 0 10 3 9 8 -4 5
-12 28 63 69 230 34 137 62 257 62 267 0 9 5 17 10 17 6 0 5 6 -2 14 -7 8 -17
13 -23 13 -5 -1 -10 4 -10 11 0 6 5 12 10 13 6 0 14 7 18 15 9 16 27 19 27 3
0 -5 -6 -7 -12 -3 -7 4 -10 4 -6 -1 4 -4 3 -14 -2 -20 -8 -9 -6 -14 5 -19 8
-3 15 -16 15 -28 1 -13 14 -48 30 -78 28 -52 29 -54 30 -24 0 45 23 62 44 32
19 -27 20 -38 4 -75 -6 -15 -10 -32 -9 -36 1 -5 -3 -6 -9 -2 -14 9 -13 4 16
-59 14 -31 30 -54 35 -51 5 4 9 8 9 11 0 3 -4 3 -9 0 -5 -3 -11 8 -13 24 -3
23 -2 27 8 19 9 -7 14 -6 17 3 2 7 3 4 1 -6 -2 -11 1 -26 5 -35 5 -9 5 -25 0
-36 -4 -11 -8 -14 -8 -6 -1 8 -4 12 -7 9 -5 -5 120 -282 135 -300 3 -4 53 -8
110 -9 l104 -2 98 393 c116 468 113 454 95 438 -7 -7 -11 -22 -9 -33 3 -16 2
-15 -7 3 -5 13 -7 29 -3 35 4 6 0 8 -10 4 -13 -5 -17 -1 -17 16 0 16 -3 18 -9
9 -6 -10 -10 -8 -15 10 -5 19 -8 20 -16 8 -7 -11 -10 -11 -10 -2 0 7 -4 10
-10 7 -5 -3 -10 1 -10 9 0 9 -7 13 -17 12 -14 -3 -18 4 -20 36 -2 21 1 37 6
34 4 -3 21 -1 37 4 25 8 23 9 -20 7 l-49 -2 -72 -298 c-67 -274 -79 -318 -88
-306 -2 2 -34 71 -72 152 -69 149 -86 178 -77 132 2 -15 0 -25 -7 -25 -6 0
-11 -8 -11 -17 0 -15 2 -16 10 -3 5 8 10 10 10 4 0 -19 -12 -24 -33 -13 -14 8
-16 13 -8 19 9 5 7 16 -8 41 -24 39 -26 60 -9 77 10 10 16 5 31 -20 31 -57 14
-16 -52 125 -49 103 -69 136 -85 139 -12 1 -61 1 -111 -2z m30 -19 c-19 -8
-18 -9 5 -13 19 -4 17 -6 -11 -7 -20 0 -50 6 -65 14 -29 15 -28 15 31 14 41 0
54 -3 40 -8z m85 -5 c-7 -7 -14 -6 -21 1 -9 9 -7 12 9 10 14 -1 18 -5 12 -11z
m465 -88 l-17 -23 6 29 c4 15 10 42 14 60 l7 31 3 -37 c2 -24 -3 -46 -13 -60z
m-465 60 c10 -3 6 -6 -10 -10 -20 -3 -26 0 -26 13 0 11 4 15 11 10 5 -5 17
-10 25 -13z m-193 -52 c-23 -23 -28 -20 -21 12 10 42 17 48 27 24 7 -15 5 -25
-6 -36z m279 -84 c-3 -3 -6 1 -6 9 -1 10 -5 8 -15 -5 -15 -19 -15 -19 -15 1 0
12 5 23 11 25 7 2 5 9 -5 17 -14 12 -16 12 -10 -4 6 -14 4 -16 -6 -10 -9 5
-11 4 -6 -3 5 -8 -1 -12 -14 -12 -16 0 -20 4 -16 16 3 8 2 12 -4 9 -9 -6 -40
17 -40 29 0 3 17 14 38 24 l37 18 28 -54 c16 -30 26 -57 23 -60z m369 39 c3
-5 1 -12 -5 -16 -5 -3 -10 1 -10 9 0 18 6 21 15 7z m7 -63 c14 3 19 1 14 -6
-4 -8 0 -12 11 -12 15 0 16 -2 3 -10 -8 -5 -16 -14 -16 -20 -1 -5 -2 -14 -3
-20 0 -5 -6 -10 -12 -10 -5 0 -8 4 -4 9 11 19 -17 23 -31 5 -14 -18 -15 -18
-10 1 2 11 8 36 12 55 4 19 9 28 11 19 3 -12 11 -15 25 -11z m58 -74 c0 -4 -3
-4 -7 -1 -3 4 -15 0 -25 -10 -17 -15 -18 -15 -7 15 9 27 13 30 25 18 8 -8 14
-18 14 -22z m20 -24 c0 -5 -5 -10 -11 -10 -5 0 -7 5 -4 10 3 6 8 10 11 10 2 0
4 -4 4 -10z m-556 -40 l7 -25 -20 24 c-12 12 -18 28 -15 33 8 13 20 -1 28 -32z
m465 1 c9 -6 10 -11 2 -15 -6 -4 -11 -2 -11 4 0 6 -4 8 -10 5 -5 -3 -10 -1
-10 4 0 13 10 14 29 2z m-530 -45 c-1 -17 -2 -17 -6 -3 -2 9 -9 17 -14 17 -5
0 -9 7 -9 16 0 14 3 14 15 4 8 -7 14 -22 14 -34z m477 7 c-5 -28 -4 -34 3 -23
9 13 11 12 11 -3 0 -10 7 -25 15 -33 8 -9 15 -21 14 -27 0 -8 -2 -8 -6 1 -2 6
-9 9 -14 6 -6 -4 -6 -10 0 -18 8 -9 7 -21 -2 -40 -10 -22 -17 -25 -37 -20 -14
3 -26 7 -27 8 -4 3 40 186 45 186 2 0 1 -17 -2 -37z m204 28 c0 -6 -5 -13 -10
-16 -6 -4 -8 -10 -5 -15 3 -4 1 -19 -4 -32 -9 -22 -10 -21 -10 9 -1 17 2 38 5
47 7 17 24 22 24 7z m-893 -154 c-1 -39 -27 -48 -27 -10 0 16 4 22 12 17 8 -5
9 0 6 14 -4 12 -2 20 2 17 4 -3 8 -20 7 -38z m566 -50 c17 -37 17 -37 -2 -27
-11 5 -30 10 -42 10 -16 0 -20 5 -16 20 3 12 1 18 -5 14 -6 -4 -8 -1 -6 7 3 8
11 13 17 12 6 -2 10 0 10 5 -1 4 -1 14 0 22 1 18 18 -6 44 -63z m-93 -1 c0 -8
-7 -17 -16 -20 -8 -3 -12 -10 -9 -16 3 -5 1 -10 -4 -10 -14 0 -14 3 1 35 12
27 28 34 28 11z m350 -56 c-4 -19 -8 -29 -9 -22 -1 7 -5 10 -11 7 -5 -3 -2 7
8 24 21 37 23 35 12 -9z m-40 -40 c0 -5 -5 -10 -11 -10 -5 0 -7 5 -4 10 3 6 8
10 11 10 2 0 4 -4 4 -10z m27 -22 c-3 -8 -6 -5 -6 6 -1 11 2 17 5 13 3 -3 4
-12 1 -19z m-844 -25 c-18 -7 -16 -34 3 -61 22 -32 5 -47 -36 -32 -3 1 -8 2
-12 1 -4 0 -6 16 -4 36 2 34 27 64 50 62 6 0 5 -3 -1 -6z m67 -6 c0 -8 -7 -14
-15 -14 -16 0 -19 9 -8 20 11 11 23 8 23 -6z m410 -41 c0 -12 -5 -7 -19 24
-11 24 -11 24 3 6 9 -11 16 -24 16 -30z m-430 -11 c0 -8 -7 -15 -15 -15 -26 0
-18 20 13 29 1 1 2 -6 2 -14z m484 -13 c-6 -4 -15 -15 -21 -26 -9 -16 -11 -17
-16 -2 -4 10 -3 15 2 12 5 -3 11 1 15 9 3 8 11 15 18 15 9 0 9 -3 2 -8z m28
-113 c-8 -12 -9 -19 -1 -19 5 0 7 -5 3 -12 -4 -7 -16 7 -31 36 -29 57 -21 77
15 41 22 -22 24 -29 14 -46z m31 4 c-4 -11 -3 -14 5 -9 7 4 12 1 12 -9 0 -15
6 -25 38 -60 11 -13 10 -15 -12 -15 -18 0 -26 5 -26 18 0 9 -7 30 -15 46 -8
15 -12 32 -9 37 9 15 14 10 7 -8z m97 -17 c0 -18 -14 -28 -24 -18 -4 4 -13 7
-18 7 -6 0 -13 6 -15 13 -3 8 6 12 26 12 20 0 31 -5 31 -14z m16 -61 l29 -15
-28 0 c-16 0 -26 4 -23 9 4 5 0 12 -6 14 -7 3 -10 6 -7 6 4 1 20 -6 35 -14z
m-106 -1 c0 -8 -19 -13 -24 -6 -3 5 1 9 9 9 8 0 15 -2 15 -3z"/>
<path d="M6720 3801 c0 -5 16 -103 35 -218 77 -454 115 -645 103 -515 -2 23 0
42 4 42 5 0 8 6 8 14 0 19 67 57 101 58 19 1 29 7 33 22 10 36 7 58 -6 51 -7
-4 -5 0 5 8 9 8 18 20 18 28 1 8 5 1 10 -16 13 -46 0 67 -16 145 l-14 65 3
-55 c2 -30 1 -45 -1 -32 -6 29 -26 24 -33 -9 -4 -15 -8 -20 -13 -12 -4 7 -14
10 -22 6 -10 -3 -15 2 -15 16 0 12 6 21 14 21 9 0 15 17 18 51 3 28 13 58 22
67 15 15 16 14 16 -18 0 -18 3 -31 6 -27 3 3 0 44 -7 92 -10 62 -17 84 -26 81
-25 -10 -63 12 -63 36 1 30 26 65 33 46 3 -7 6 -2 7 12 l2 25 8 -25 c8 -22 9
-21 7 10 l-2 35 -60 2 c-40 1 -53 -1 -40 -6 11 -5 23 -7 26 -5 3 2 6 -3 6 -10
0 -8 -8 -11 -18 -9 -21 6 -65 -34 -79 -72 -12 -31 -34 -28 -38 4 -2 15 0 21 7
17 7 -4 11 1 11 13 0 10 6 22 13 24 7 3 5 6 -5 6 -26 1 -22 29 5 34 12 2 3 5
-20 6 -24 0 -43 -3 -43 -8z m247 -173 c-3 -7 -5 -2 -5 12 0 14 2 19 5 13 2 -7
2 -19 0 -25z m-53 4 c2 -4 -5 -9 -17 -9 -17 -2 -19 0 -7 7 18 12 18 12 24 2z
m66 -54 c0 -16 -3 -19 -11 -11 -6 6 -8 16 -5 22 11 17 16 13 16 -11z m-183
-130 c-3 -7 -5 -2 -5 12 0 14 2 19 5 13 2 -7 2 -19 0 -25z m10 -40 c-3 -8 -6
-5 -6 6 -1 11 2 17 5 13 3 -3 4 -12 1 -19z m20 -120 c-3 -8 -6 -5 -6 6 -1 11
2 17 5 13 3 -3 4 -12 1 -19z m27 -55 c-3 -63 -6 -68 -18 -28 -10 34 -10 41 3
47 9 4 16 7 16 7 1 1 0 -11 -1 -26z"/>
<path d="M7901 3749 c-7 -34 -10 -63 -8 -66 3 -2 7 11 11 29 4 24 12 34 25 34
19 0 18 -24 -3 -38 -5 -3 -10 -15 -12 -25 -1 -10 -5 -26 -9 -35 -4 -10 -3 -18
2 -18 5 0 10 -15 11 -32 l2 -33 -15 25 c-10 18 -14 20 -15 8 0 -9 -4 -19 -8
-22 -5 -3 -7 9 -5 27 2 18 1 28 -2 22 -6 -14 -185 -723 -185 -733 1 -4 7 7 15
23 l14 30 -5 -30 c-4 -19 -2 -25 3 -18 7 9 18 4 41 -21 18 -19 32 -37 32 -41
0 -3 -21 -5 -47 -3 -36 2 -47 7 -49 21 -3 24 -14 35 -14 14 0 -8 -3 -22 -6
-31 -5 -14 9 -16 114 -16 116 0 120 1 125 23 3 12 37 148 76 301 68 268 79
317 64 303 -8 -9 -33 25 -26 36 3 5 11 0 20 -10 13 -17 13 -16 4 4 -13 27 -14
70 -2 77 10 7 21 -16 22 -47 0 -21 1 -20 10 3 6 14 17 54 24 90 8 36 18 76 21
90 6 24 6 24 -9 5 -14 -17 -16 -17 -17 -4 0 9 -7 19 -15 23 -8 3 -12 12 -9 21
5 11 -1 15 -22 15 -23 0 -26 2 -14 10 13 8 13 10 -2 10 -9 0 -19 6 -22 13 -5
10 -7 10 -12 0 -3 -7 -10 -13 -15 -13 -6 0 -7 5 -4 10 3 6 0 11 -7 12 -7 1 14
4 47 8 60 7 60 7 -25 8 l-86 2 -13 -61z m59 -184 c0 -8 -4 -15 -10 -15 -5 0
-10 7 -10 15 0 8 5 15 10 15 6 0 10 -7 10 -15z m-130 -212 c-16 -74 -19 -87
-25 -81 -3 3 2 37 11 77 19 85 31 89 14 4z m-9 -116 c-10 -9 -11 -8 -5 6 3 10
9 15 12 12 3 -3 0 -11 -7 -18z m-24 -55 c-9 -10 -21 -29 -27 -42 -10 -24 -10
-24 -5 5 3 17 13 35 21 41 7 6 14 17 15 25 0 11 2 11 6 1 3 -7 -2 -21 -10 -30z
m175 -9 c-5 -10 -7 -25 -4 -33 3 -11 1 -12 -7 -4 -9 8 -9 18 -1 39 6 15 13 25
16 22 3 -3 1 -14 -4 -24z m-72 -323 c0 -5 -5 -10 -11 -10 -5 0 -7 5 -4 10 3 6
8 10 11 10 2 0 4 -4 4 -10z"/>
<path d="M11773 3804 c4 -4 17 -8 29 -9 13 -1 26 -3 31 -4 4 0 7 -9 6 -18 0
-11 -3 -13 -6 -5 -2 6 -14 12 -26 12 -20 -1 -21 -2 -5 -14 14 -10 15 -15 5
-25 -9 -10 -9 -11 4 -6 13 5 15 0 13 -27 -3 -32 -3 -32 11 7 7 22 14 52 14 68
1 25 -2 27 -41 27 -23 0 -38 -3 -35 -6z"/>
<path d="M7415 3668 c-47 -73 -114 -176 -147 -228 -34 -52 -83 -129 -109 -171
-51 -78 -64 -113 -28 -69 l21 25 -15 -25 c-8 -14 -20 -24 -26 -23 -6 2 -16 -7
-22 -20 -21 -39 -50 -45 -48 -9 0 14 2 13 9 -3 l9 -20 0 20 c0 11 -4 38 -8 60
-8 38 -9 38 -10 8 0 -17 -7 -38 -14 -45 -8 -7 -18 -31 -23 -53 -8 -35 -15 -41
-48 -50 -46 -13 -56 -34 -58 -114 -1 -55 -1 -55 -11 -21 -15 55 -21 15 -7 -51
l13 -59 107 0 107 0 47 71 c26 39 45 73 42 76 -2 3 -12 -9 -21 -26 -18 -35
-30 -41 -20 -11 5 15 3 18 -9 14 -8 -3 -14 -11 -12 -17 1 -7 1 -9 -1 -6 -2 4
-13 4 -25 1 -14 -3 -19 -1 -14 6 4 7 12 12 18 12 7 0 22 10 35 22 22 21 24 21
17 3 -7 -20 -7 -20 15 0 13 11 25 19 28 17 5 -3 113 154 113 165 0 3 -8 -1
-17 -8 -16 -13 -17 -12 -4 3 7 10 17 16 21 13 11 -7 91 125 84 137 -4 6 -2 8
3 5 13 -8 46 40 38 54 -8 12 14 41 26 33 5 -3 19 12 31 33 13 21 50 79 84 128
72 107 83 126 63 108 -18 -18 -36 -16 -43 4 -5 11 -1 22 9 29 13 10 14 14 3
20 -7 5 -19 9 -26 10 -7 1 -26 17 -42 34 -26 28 -32 31 -47 19 -15 -13 -15
-12 -4 9 30 56 -4 11 -84 -110z m47 40 c-16 -16 -15 -33 1 -20 9 8 16 6 24 -7
10 -15 7 -17 -21 -16 -21 2 -30 7 -28 16 4 16 22 39 30 39 3 0 1 -5 -6 -12z
m-84 -186 c2 -15 -2 -22 -13 -22 -12 0 -15 6 -11 23 3 12 3 16 0 10 -3 -7 -10
-13 -16 -13 -6 0 -5 6 2 15 17 20 34 14 38 -13z m170 11 c1 -25 -19 -63 -30
-57 -4 3 -1 12 7 20 8 9 13 20 10 25 -4 5 -3 14 0 19 9 14 12 13 13 -7z m-320
-218 c-2 -16 -8 -25 -19 -25 -8 0 -21 -12 -28 -26 -6 -15 -14 -24 -17 -21 -6
6 48 97 58 97 4 0 7 -11 6 -25z m-8 -169 c0 -2 -7 -9 -15 -16 -12 -10 -15 -10
-15 4 0 9 7 16 15 16 8 0 15 -2 15 -4z m65 -16 c3 -5 1 -18 -4 -27 -6 -10 -11
-14 -11 -9 0 5 -7 3 -15 -4 -12 -10 -15 -9 -15 4 0 17 19 45 32 46 4 0 10 -4
13 -10z m-139 -235 c-2 -5 -8 -9 -14 -8 -6 2 -9 -3 -6 -10 2 -7 -5 -22 -17
-33 -13 -10 -19 -14 -16 -7 4 6 4 13 0 16 -5 2 -2 2 5 1 17 -5 15 11 -3 26
-25 20 -17 31 20 28 20 -1 34 -7 31 -13z m-215 -27 c0 -10 2 -10 6 0 6 15 33
16 33 1 0 -5 4 -8 9 -5 4 3 19 -3 31 -14 l23 -20 -66 0 c-38 0 -67 4 -67 10 0
6 6 10 13 11 9 0 9 2 -1 6 -6 2 -10 9 -6 14 8 13 24 11 25 -3z"/>
<path d="M8445 3760 c-3 -5 -1 -10 4 -10 6 0 11 5 11 10 0 6 -2 10 -4 10 -3 0
-8 -4 -11 -10z"/>
<path d="M10606 3755 c-3 -8 -1 -15 4 -15 6 0 10 7 10 15 0 8 -2 15 -4 15 -2
0 -6 -7 -10 -15z"/>
<path d="M11671 3754 c0 -11 3 -14 6 -6 3 7 2 16 -1 19 -3 4 -6 -2 -5 -13z"/>
<path d="M6962 3705 c0 -16 2 -22 5 -12 2 9 2 23 0 30 -3 6 -5 -1 -5 -18z"/>
<path d="M7881 3654 c0 -11 3 -14 6 -6 3 7 2 16 -1 19 -3 4 -6 -2 -5 -13z"/>
<path d="M8291 3554 c0 -11 3 -14 6 -6 3 7 2 16 -1 19 -3 4 -6 -2 -5 -13z"/>
<path d="M10671 3524 c0 -11 3 -14 6 -6 3 7 2 16 -1 19 -3 4 -6 -2 -5 -13z"/>
<path d="M6971 3514 c0 -11 3 -14 6 -6 3 7 2 16 -1 19 -3 4 -6 -2 -5 -13z"/>
<path d="M8280 3514 c0 -10 5 -26 10 -34 8 -11 9 -7 4 15 -8 37 -14 45 -14 19z"/>
<path d="M10661 3484 c0 -11 3 -14 6 -6 3 7 2 16 -1 19 -3 4 -6 -2 -5 -13z"/>
<path d="M6961 3474 c0 -11 3 -14 6 -6 3 7 2 16 -1 19 -3 4 -6 -2 -5 -13z"/>
<path d="M7457 3373 c-4 -3 -7 -11 -7 -17 0 -6 5 -5 12 2 6 6 9 14 7 17 -3 3
-9 2 -12 -2z"/>
<path d="M11186 3287 c3 -10 9 -15 12 -12 3 3 0 11 -7 18 -10 9 -11 8 -5 -6z"/>
<path d="M7013 3195 c0 -8 4 -15 9 -15 4 0 8 4 8 9 0 6 -4 12 -8 15 -5 3 -9
-1 -9 -9z"/>
<path d="M8181 3014 c0 -11 3 -14 6 -6 3 7 2 16 -1 19 -3 4 -6 -2 -5 -13z"/>
<path d="M6862 2995 c0 -16 2 -22 5 -12 2 9 2 23 0 30 -3 6 -5 -1 -5 -18z"/>
<path d="M9167 2921 c-3 -16 -9 -42 -12 -57 -4 -21 -3 -25 3 -14 11 17 26 100
19 100 -2 0 -7 -13 -10 -29z"/>
<path d="M9176 2855 c-3 -8 -1 -15 4 -15 6 0 10 7 10 15 0 8 -2 15 -4 15 -2 0
-6 -7 -10 -15z"/>
</g>
</svg>
